<svg width="32" height="32" viewBox="0 0 32 32" fill="none" xmlns="http://www.w3.org/2000/svg">
<g clip-path="url(#clip0_56_1753)">
<path d="M31.998 18.4944C31.9905 18.41 31.9605 18.3331 31.9349 18.2506C31.4493 16.7725 29.5799 14.095 26.9261 11.8394C26.7286 11.6719 26.433 11.6956 26.2655 11.8931C26.098 12.0906 26.1218 12.3863 26.3193 12.5538C28.0943 14.0625 29.4224 15.6856 30.2293 16.9513C28.128 15.4369 26.0111 14.2475 23.918 13.4069C21.2836 12.3487 18.6118 11.8125 15.9768 11.8125H15.9699C13.3336 11.8131 10.6643 12.3512 8.03677 13.4113C5.95927 14.2494 3.86177 15.4319 1.78114 16.9375C2.57364 15.6981 3.86427 14.1156 5.58364 12.6369C7.84302 10.6931 11.4849 8.37563 16.0005 8.37563C18.9349 8.37563 21.8355 9.34438 24.6218 11.2544C24.8349 11.4006 25.1268 11.3463 25.2736 11.1325C25.4199 10.9188 25.3655 10.6269 25.1518 10.4806C24.3811 9.9525 23.6011 9.49188 22.8136 9.10063C22.9486 8.46375 23.233 7.82875 23.6774 7.16937C23.8218 6.955 23.7655 6.66313 23.5505 6.51875C23.3355 6.37437 23.0443 6.43063 22.8999 6.64563C22.4336 7.3375 22.1186 8.01375 21.9449 8.69812C21.1749 8.36687 20.398 8.10063 19.6155 7.89937C19.6755 6.90375 19.863 6.01938 20.1868 5.20563C20.2824 4.965 20.1649 4.6925 19.9243 4.59688C19.6836 4.50125 19.4111 4.61875 19.3155 4.85938C18.9711 5.72563 18.7655 6.65688 18.6899 7.6925C17.9536 7.5525 17.213 7.47 16.4693 7.44563V4.46875C16.4693 4.21 16.2593 4 16.0005 4C15.7418 4 15.5318 4.21 15.5318 4.46875V7.445C14.7655 7.47062 14.0249 7.55687 13.3118 7.69313C13.2368 6.6575 13.0311 5.72563 12.6861 4.85875C12.5905 4.61812 12.318 4.50063 12.0774 4.59625C11.8368 4.69187 11.7193 4.96438 11.8149 5.205C12.1386 6.02 12.3268 6.905 12.3855 7.90062C11.568 8.11125 10.7911 8.38375 10.058 8.69875C9.88427 8.01375 9.56864 7.33687 9.10177 6.64438C8.95677 6.43 8.66552 6.37313 8.45114 6.51813C8.23677 6.66313 8.17989 6.95438 8.32489 7.16875C8.76989 7.82812 9.05427 8.46375 9.18927 9.10063C7.50114 9.9375 6.07864 10.9744 4.97239 11.9256C3.37052 13.3038 2.25677 14.6506 1.60427 15.5381C0.853019 16.5606 0.299894 17.5356 0.0655189 18.2487C0.0205189 18.3812 -0.0244811 18.5175 0.0180189 18.6562C0.293644 19.6525 1.26177 21.0688 2.60677 22.4456C2.69864 22.5394 2.82052 22.5869 2.94239 22.5869C3.06427 22.5869 3.17864 22.5425 3.26989 22.4531C3.45489 22.2725 3.45864 21.9756 3.27739 21.79C2.00739 20.4906 1.30177 19.3881 1.01989 18.6906C2.94489 17.1631 4.88864 15.9194 6.81864 14.9788C6.38364 16.1056 6.15677 17.3131 6.15677 18.5306C6.15677 21.6269 7.59364 24.3931 9.83552 26.1994C7.63239 25.3044 5.92302 24.1038 4.85552 23.2313C4.65489 23.0675 4.35989 23.0975 4.19614 23.2975C4.03239 23.4981 4.06177 23.7931 4.26239 23.9569C6.28114 25.6063 10.4905 28.3738 16.0011 28.3738C20.8355 28.3738 24.653 26.2844 27.0036 24.5312C28.2911 23.5713 29.4593 22.4706 30.3818 21.3475C31.213 20.3363 31.7811 19.3825 31.9824 18.6613C31.998 18.6075 32.0043 18.5506 31.9999 18.4931L31.998 18.4944ZM7.09364 18.5312C7.09364 17.0887 7.44489 15.6613 8.11177 14.3938C8.20364 14.355 8.29552 14.3175 8.38739 14.2806C9.33989 13.8963 10.298 13.5837 11.2568 13.3438C10.8693 13.6987 10.5199 14.0988 10.2161 14.5375C9.40052 15.7156 8.96927 17.0963 8.96927 18.5312C8.96927 22.4081 12.1236 25.5625 16.0005 25.5625C16.9636 25.5625 17.8968 25.3706 18.7743 24.9912C19.0118 24.8887 19.1211 24.6125 19.0186 24.375C18.9161 24.1375 18.6405 24.0281 18.4024 24.1306C17.6436 24.4581 16.8355 24.6244 16.0005 24.6244C12.6405 24.6244 9.90677 21.8906 9.90677 18.5306C9.90677 17.2875 10.2805 16.0913 10.9868 15.0706C11.6655 14.0906 12.6018 13.3375 13.6986 12.8888C14.458 12.7963 15.2155 12.75 15.9705 12.7494H15.9768C16.7549 12.7494 17.5361 12.7987 18.3199 12.8962C19.4118 13.3469 20.3443 14.1006 21.0199 15.0787C21.723 16.0975 22.0943 17.2906 22.0943 18.5306C22.0943 20.2344 21.3705 21.8731 20.1086 23.0275C19.9174 23.2025 19.9043 23.4988 20.0786 23.69C20.1711 23.7913 20.298 23.8425 20.4249 23.8425C20.538 23.8425 20.6511 23.8019 20.7411 23.72C22.1968 22.3888 23.0318 20.4981 23.0318 18.5319C23.0318 17.1012 22.603 15.7237 21.7911 14.5475C21.4899 14.1106 21.1436 13.7125 20.7593 13.3588C21.6974 13.5963 22.6349 13.9025 23.5686 14.2775C23.6786 14.3219 23.788 14.3669 23.898 14.4125C24.5586 15.6756 24.9068 17.0962 24.9068 18.5319C24.9068 23.4425 20.9118 27.4381 16.0005 27.4381C11.0899 27.4381 7.09427 23.4431 7.09427 18.5319L7.09364 18.5312ZM26.4424 23.7806C25.3336 24.6075 23.8836 25.5125 22.1455 26.2156C24.3986 24.41 25.8436 21.6362 25.8436 18.5312C25.8436 17.3206 25.6193 16.1194 25.1886 14.9969C27.1155 15.9362 29.0574 17.1744 30.983 18.6938C30.3755 20.2537 28.2518 22.4312 26.4424 23.7806Z" fill="#212121"/>
</g>
<defs>
<clipPath id="clip0_56_1753">
<rect width="32" height="24.375" fill="white" transform="translate(0 4)"/>
</clipPath>
</defs>
</svg>
