<svg width="32" height="32" viewBox="0 0 32 32" fill="none" xmlns="http://www.w3.org/2000/svg">
<g clip-path="url(#clip0_56_1844)">
<path d="M29.1719 5.79517C29.0944 4.40329 27.9375 3.29454 26.5269 3.29454H21.9737C21.6869 2.84204 21.3469 2.41829 20.9556 2.03204C19.6 0.695791 17.8037 -0.0273344 15.8994 0.000790608C14.1237 0.0257906 12.4163 0.756416 11.09 2.05829C10.7019 2.43954 10.3625 2.85454 10.0744 3.29454H5.47312C4.0625 3.29454 2.90563 4.40329 2.82812 5.79517C1.16813 6.26204 0 7.77704 0 9.53642V25.6639C0 29.1577 2.8425 32.0002 6.33625 32.0002H25.6637C29.1575 32.0002 32 29.1577 32 25.6639V9.53642C32 7.77704 30.8319 6.26142 29.1719 5.79454V5.79517ZM15.9125 0.938291C17.5638 0.913916 19.1219 1.54079 20.2969 2.69954C20.6869 3.08454 21.0187 3.51204 21.2881 3.97204C21.2981 3.99204 21.3088 4.01079 21.3219 4.02892C21.8431 4.94079 22.12 5.97704 22.12 7.05767C22.12 9.18704 21.0394 11.1314 19.2288 12.2577C18.215 12.8883 17.5656 13.9152 17.4375 15.0602H16.4688V9.62517C16.6619 9.73767 16.8781 9.81704 17.1112 9.85517C17.2131 9.87142 17.315 9.88017 17.4163 9.88017C17.8075 9.88017 18.1881 9.75829 18.5119 9.52454C18.9194 9.23079 19.1881 8.79579 19.2687 8.30017C19.3494 7.80454 19.2319 7.30704 18.9381 6.89892C18.6444 6.49142 18.2094 6.22267 17.7138 6.14204C17.2175 6.06142 16.72 6.17892 16.3125 6.47267C16.1963 6.55642 16.0919 6.65204 15.9994 6.75642C15.7213 6.44017 15.3362 6.21454 14.8894 6.14204C13.8663 5.97579 12.8975 6.67329 12.7319 7.69704C12.5656 8.72079 13.2631 9.68892 14.2869 9.85454C14.3888 9.87079 14.4906 9.87954 14.5925 9.87954C14.9225 9.87954 15.2444 9.79204 15.5312 9.62454V15.0602H14.5625C14.4344 13.9145 13.7869 12.8883 12.7756 12.2595C10.9225 11.1083 9.81375 9.03892 9.88313 6.85767C9.98375 3.69267 12.745 0.981416 15.9131 0.937041L15.9125 0.938291ZM16.0025 17.4139C16.0025 17.4139 16.0006 17.4139 16 17.4139C15.9994 17.4139 15.9981 17.4139 15.9975 17.4139H13.8819C13.4913 17.4139 13.1737 17.0964 13.1737 16.7058C13.1737 16.3152 13.4913 15.9977 13.8819 15.9977H18.1175C18.5081 15.9977 18.8256 16.3152 18.8256 16.7058C18.8256 17.0964 18.5081 17.4139 18.1175 17.4139H16.0019H16.0025ZM16.4813 7.84829C16.5219 7.59954 16.6562 7.38142 16.8606 7.23454C17.065 7.08704 17.3144 7.02829 17.5631 7.06892C17.8119 7.10954 18.03 7.24392 18.1775 7.44829C18.325 7.65267 18.3837 7.90204 18.3431 8.15079C18.3025 8.39954 18.1681 8.61767 17.9638 8.76517C17.7594 8.91267 17.51 8.97142 17.2612 8.93079C16.7481 8.84767 16.3981 8.36204 16.4813 7.84892V7.84829ZM15.5194 8.15017C15.4788 8.39892 15.3444 8.61704 15.14 8.76392C14.9356 8.91079 14.6862 8.97017 14.4375 8.92954C13.9244 8.84642 13.5744 8.36079 13.6575 7.84767C13.7406 7.33454 14.2262 6.98454 14.7394 7.06767C15.2525 7.15079 15.6025 7.63642 15.5194 8.14954V8.15017ZM31.0625 25.6639C31.0625 28.6408 28.6406 31.0627 25.6637 31.0627H6.33625C3.35937 31.0627 0.9375 28.6408 0.9375 25.6639V9.53642C0.9375 8.29454 1.70375 7.21329 2.82375 6.78329V25.5858C2.82375 27.0464 4.0125 28.2352 5.47312 28.2352H7.69438C7.95312 28.2352 8.16313 28.0252 8.16313 27.7664C8.16313 27.5077 7.95312 27.2977 7.69438 27.2977H5.47312C4.52938 27.2977 3.76125 26.5295 3.76125 25.5858V6.18267V5.94454C3.76125 5.00079 4.52938 4.23267 5.47312 4.23267H9.5575C9.18437 5.05079 8.97438 5.92954 8.94563 6.82954C8.86563 9.34391 10.1438 11.7302 12.2806 13.057C13.02 13.5164 13.5019 14.2545 13.6194 15.082C12.8363 15.2083 12.2362 15.8883 12.2362 16.7064C12.2362 17.6139 12.9744 18.352 13.8819 18.352H15.5312V25.5864C15.5312 26.5302 14.7631 27.2983 13.8194 27.2983H9.88188C9.62313 27.2983 9.41313 27.5083 9.41313 27.767C9.41313 28.0258 9.62313 28.2358 9.88188 28.2358H13.8194C14.7225 28.2358 15.5219 27.7808 16 27.0889C16.4781 27.7814 17.2775 28.2358 18.1806 28.2358H26.5269C27.9875 28.2358 29.1763 27.047 29.1763 25.5864V15.5214C29.1763 15.2627 28.9663 15.0527 28.7075 15.0527C28.4487 15.0527 28.2388 15.2627 28.2388 15.5214V25.5864C28.2388 26.5302 27.4706 27.2983 26.5269 27.2983H18.1806C17.2369 27.2983 16.4688 26.5302 16.4688 25.5864V18.352H18.1181C19.0256 18.352 19.7638 17.6139 19.7638 16.7064C19.7638 15.8883 19.1637 15.2083 18.3813 15.082C18.5 14.2552 18.9825 13.5158 19.725 13.0539C21.8125 11.7552 23.0588 9.51329 23.0588 7.05767C23.0588 6.06829 22.8569 5.11079 22.4725 4.23204H26.5281C27.4719 4.23204 28.24 5.00017 28.24 5.94392V6.18204V13.3327C28.24 13.5914 28.45 13.8014 28.7087 13.8014C28.9675 13.8014 29.1775 13.5914 29.1775 13.3327V6.78267C30.2975 7.21329 31.0637 8.29454 31.0637 9.53579V25.6633L31.0625 25.6639Z" fill="#212121"/>
<path d="M13.6451 24.9424C13.6451 24.6836 13.4351 24.4736 13.1763 24.4736H6.11694C5.85819 24.4736 5.64819 24.6836 5.64819 24.9424C5.64819 25.2011 5.85819 25.4111 6.11694 25.4111H13.1763C13.4351 25.4111 13.6451 25.2011 13.6451 24.9424Z" fill="#212121"/>
<path d="M6.11621 22.5869H13.1756C13.4343 22.5869 13.6443 22.3769 13.6443 22.1182C13.6443 21.8594 13.4343 21.6494 13.1756 21.6494H6.11621C5.85746 21.6494 5.64746 21.8594 5.64746 22.1182C5.64746 22.3769 5.85746 22.5869 6.11621 22.5869Z" fill="#212121"/>
<path d="M6.11621 19.7632H9.88121C10.14 19.7632 10.35 19.5532 10.35 19.2944C10.35 19.0357 10.14 18.8257 9.88121 18.8257H6.11621C5.85746 18.8257 5.64746 19.0357 5.64746 19.2944C5.64746 19.5532 5.85746 19.7632 6.11621 19.7632Z" fill="#212121"/>
<path d="M25.8838 24.4736H18.8245C18.5657 24.4736 18.3557 24.6836 18.3557 24.9424C18.3557 25.2011 18.5657 25.4111 18.8245 25.4111H25.8838C26.1426 25.4111 26.3526 25.2011 26.3526 24.9424C26.3526 24.6836 26.1426 24.4736 25.8838 24.4736Z" fill="#212121"/>
<path d="M25.8838 21.6494H18.8245C18.5657 21.6494 18.3557 21.8594 18.3557 22.1182C18.3557 22.3769 18.5657 22.5869 18.8245 22.5869H25.8838C26.1426 22.5869 26.3526 22.3769 26.3526 22.1182C26.3526 21.8594 26.1426 21.6494 25.8838 21.6494Z" fill="#212121"/>
<path d="M25.8837 18.8257H22.1187C21.8599 18.8257 21.6499 19.0357 21.6499 19.2944C21.6499 19.5532 21.8599 19.7632 22.1187 19.7632H25.8837C26.1424 19.7632 26.3524 19.5532 26.3524 19.2944C26.3524 19.0357 26.1424 18.8257 25.8837 18.8257Z" fill="#212121"/>
<path d="M6.11621 16.9395H9.88121C10.14 16.9395 10.35 16.7295 10.35 16.4707C10.35 16.212 10.14 16.002 9.88121 16.002H6.11621C5.85746 16.002 5.64746 16.212 5.64746 16.4707C5.64746 16.7295 5.85746 16.9395 6.11621 16.9395Z" fill="#212121"/>
<path d="M25.8837 16.002H22.1187C21.8599 16.002 21.6499 16.212 21.6499 16.4707C21.6499 16.7295 21.8599 16.9395 22.1187 16.9395H25.8837C26.1424 16.9395 26.3524 16.7295 26.3524 16.4707C26.3524 16.212 26.1424 16.002 25.8837 16.002Z" fill="#212121"/>
</g>
<defs>
<clipPath id="clip0_56_1844">
<rect width="32" height="32" fill="white"/>
</clipPath>
</defs>
</svg>
