<svg width="36" height="32" viewBox="0 0 36 32" fill="none" xmlns="http://www.w3.org/2000/svg">
<g clip-path="url(#clip0_56_1766)">
<path d="M32.5198 2.78761C32.4334 1.23599 31.1437 0 29.5712 0H6.10124C4.52873 0 3.23909 1.23599 3.15269 2.78761C1.30218 3.30737 0 4.99693 0 6.95822V24.9366C0 28.8313 3.16872 32 7.06342 32H28.609C32.5037 32 35.6725 28.8313 35.6725 24.9366V6.95822C35.6725 4.99693 34.3703 3.30737 32.5198 2.78691V2.78761ZM34.6274 24.9366C34.6274 28.2551 31.9275 30.9549 28.609 30.9549H7.06342C3.74491 30.9549 1.04509 28.2551 1.04509 24.9366V6.95822C1.04509 5.57382 1.89928 4.36848 3.14782 3.88913V24.8495C3.14782 26.4777 4.47299 27.8029 6.10124 27.8029H8.57741C8.86586 27.8029 9.09996 27.5688 9.09996 27.2804C9.09996 26.9919 8.86586 26.7578 8.57741 26.7578H6.10124C5.04918 26.7578 4.19291 25.9015 4.19291 24.8495V3.21958V2.95412C4.19291 1.90207 5.04918 1.04579 6.10124 1.04579H17.3137V24.8502C17.3137 25.9022 16.4574 26.7585 15.4053 26.7585H11.016C10.7275 26.7585 10.4934 26.9926 10.4934 27.2811C10.4934 27.5695 10.7275 27.8036 11.016 27.8036H15.4053C16.4121 27.8036 17.3032 27.2964 17.8362 26.5251C18.3692 27.2971 19.2603 27.8036 20.2671 27.8036H29.5712C31.1995 27.8036 32.5246 26.4784 32.5246 24.8502V13.6301C32.5246 13.3416 32.2905 13.1075 32.0021 13.1075C31.7136 13.1075 31.4795 13.3416 31.4795 13.6301V24.8502C31.4795 25.9022 30.6233 26.7585 29.5712 26.7585H20.2671C19.215 26.7585 18.3588 25.9022 18.3588 24.8502V1.04509H29.5712C30.6233 1.04509 31.4795 1.90137 31.4795 2.95343V3.21888V11.1901C31.4795 11.4786 31.7136 11.7127 32.0021 11.7127C32.2905 11.7127 32.5246 11.4786 32.5246 11.1901V3.88913C33.7732 4.36918 34.6274 5.57452 34.6274 6.95822V24.9366Z" fill="#212121"/>
<path d="M15.211 24.1324C15.211 23.844 14.9769 23.6099 14.6885 23.6099H6.81893C6.53049 23.6099 6.29639 23.844 6.29639 24.1324C6.29639 24.4209 6.53049 24.655 6.81893 24.655H14.6885C14.9769 24.655 15.211 24.4209 15.211 24.1324Z" fill="#212121"/>
<path d="M6.8182 21.5065H14.6877C14.9762 21.5065 15.2103 21.2724 15.2103 20.984C15.2103 20.6955 14.9762 20.4614 14.6877 20.4614H6.8182C6.52975 20.4614 6.29565 20.6955 6.29565 20.984C6.29565 21.2724 6.52975 21.5065 6.8182 21.5065Z" fill="#212121"/>
<path d="M28.8542 23.6099H20.9847C20.6963 23.6099 20.4622 23.844 20.4622 24.1324C20.4622 24.4209 20.6963 24.655 20.9847 24.655H28.8542C29.1427 24.655 29.3768 24.4209 29.3768 24.1324C29.3768 23.844 29.1427 23.6099 28.8542 23.6099Z" fill="#212121"/>
<path d="M28.8542 20.4614H20.9847C20.6963 20.4614 20.4622 20.6955 20.4622 20.984C20.4622 21.2724 20.6963 21.5065 20.9847 21.5065H28.8542C29.1427 21.5065 29.3768 21.2724 29.3768 20.984C29.3768 20.6955 29.1427 20.4614 28.8542 20.4614Z" fill="#212121"/>
<path d="M6.8182 18.3586H14.6877C14.9762 18.3586 15.2103 18.1245 15.2103 17.836C15.2103 17.5476 14.9762 17.3135 14.6877 17.3135H6.8182C6.52975 17.3135 6.29565 17.5476 6.29565 17.836C6.29565 18.1245 6.52975 18.3586 6.8182 18.3586Z" fill="#212121"/>
<path d="M6.8182 15.2111H14.6877C14.9762 15.2111 15.2103 14.977 15.2103 14.6886C15.2103 14.4001 14.9762 14.166 14.6877 14.166H6.8182C6.52975 14.166 6.29565 14.4001 6.29565 14.6886C6.29565 14.977 6.52975 15.2111 6.8182 15.2111Z" fill="#212121"/>
<path d="M6.8182 12.0632H14.6877C14.9762 12.0632 15.2103 11.8291 15.2103 11.5406C15.2103 11.2522 14.9762 11.0181 14.6877 11.0181H6.8182C6.52975 11.0181 6.29565 11.2522 6.29565 11.5406C6.29565 11.8291 6.52975 12.0632 6.8182 12.0632Z" fill="#212121"/>
<path d="M6.8182 8.91521H14.6877C14.9762 8.91521 15.2103 8.68111 15.2103 8.39266C15.2103 8.10422 14.9762 7.87012 14.6877 7.87012H6.8182C6.52975 7.87012 6.29565 8.10422 6.29565 8.39266C6.29565 8.68111 6.52975 8.91521 6.8182 8.91521Z" fill="#212121"/>
<path d="M6.8182 5.76677H14.6877C14.9762 5.76677 15.2103 5.53267 15.2103 5.24423C15.2103 4.95578 14.9762 4.72168 14.6877 4.72168H6.8182C6.52975 4.72168 6.29565 4.95578 6.29565 5.24423C6.29565 5.53267 6.52975 5.76677 6.8182 5.76677Z" fill="#212121"/>
<path d="M28.8542 17.3135H20.9847C20.6963 17.3135 20.4622 17.5476 20.4622 17.836C20.4622 18.1245 20.6963 18.3586 20.9847 18.3586H28.8542C29.1427 18.3586 29.3768 18.1245 29.3768 17.836C29.3768 17.5476 29.1427 17.3135 28.8542 17.3135Z" fill="#212121"/>
<path d="M28.8542 14.166H20.9847C20.6963 14.166 20.4622 14.4001 20.4622 14.6886C20.4622 14.977 20.6963 15.2111 20.9847 15.2111H28.8542C29.1427 15.2111 29.3768 14.977 29.3768 14.6886C29.3768 14.4001 29.1427 14.166 28.8542 14.166Z" fill="#212121"/>
<path d="M28.8542 11.0181H20.9847C20.6963 11.0181 20.4622 11.2522 20.4622 11.5406C20.4622 11.8291 20.6963 12.0632 20.9847 12.0632H28.8542C29.1427 12.0632 29.3768 11.8291 29.3768 11.5406C29.3768 11.2522 29.1427 11.0181 28.8542 11.0181Z" fill="#212121"/>
<path d="M28.8542 7.87012H20.9847C20.6963 7.87012 20.4622 8.10422 20.4622 8.39266C20.4622 8.68111 20.6963 8.91521 20.9847 8.91521H28.8542C29.1427 8.91521 29.3768 8.68111 29.3768 8.39266C29.3768 8.10422 29.1427 7.87012 28.8542 7.87012Z" fill="#212121"/>
<path d="M28.8542 4.72168H20.9847C20.6963 4.72168 20.4622 4.95578 20.4622 5.24423C20.4622 5.53267 20.6963 5.76677 20.9847 5.76677H28.8542C29.1427 5.76677 29.3768 5.53267 29.3768 5.24423C29.3768 4.95578 29.1427 4.72168 28.8542 4.72168Z" fill="#212121"/>
</g>
<defs>
<clipPath id="clip0_56_1766">
<rect width="35.6725" height="32" fill="white"/>
</clipPath>
</defs>
</svg>
