<svg width="32" height="32" viewBox="0 0 32 32" fill="none" xmlns="http://www.w3.org/2000/svg">
<g clip-path="url(#clip0_56_1758)">
<path d="M31.8487 13.6108C31.6875 11.517 29.9825 9.84763 27.8831 9.727C27.0131 9.677 25.9518 9.62263 24.7812 9.577C24.5843 7.5195 22.8968 5.88888 20.8237 5.77013C19.4368 5.69075 18.0806 5.6295 16.7925 5.587C16.5337 5.57888 16.3168 5.78138 16.3087 6.04013C16.3006 6.29888 16.5031 6.51575 16.7618 6.52388C18.0425 6.56575 19.3912 6.627 20.7706 6.70575C22.3412 6.79575 23.6281 8.00138 23.835 9.54263C20.2 9.42388 16.6643 9.43763 11.65 9.72638C10.1906 9.81013 8.85559 10.6626 8.16684 11.952C8.04497 12.1801 8.13122 12.4645 8.35934 12.5864C8.58747 12.7083 8.87184 12.622 8.99372 12.3939C9.52934 11.3908 10.5675 10.7276 11.7031 10.6626C17.5181 10.3276 22.0068 10.327 27.83 10.6626C29.4625 10.7564 30.7887 12.0545 30.9143 13.6826C31.1125 16.242 31.1131 17.7533 30.9143 20.3189C30.7887 21.947 29.4631 23.2451 27.8293 23.3389C27.6325 23.3508 27.4281 23.362 27.2181 23.3733C26.4718 23.4139 25.8868 24.0308 25.8868 24.7776C25.8868 28.112 25.8925 28.1126 25.8868 28.1064L21.78 23.9995C21.5143 23.7339 21.1475 23.5839 20.7706 23.5876C20.1556 23.5933 19.7825 23.5914 19.4893 23.5908C20.26 20.9964 19.4325 18.097 16.8318 16.0164C12.4756 12.5314 5.24497 13.0483 1.72934 17.1801C1.63872 16.9183 1.58122 16.6451 1.55872 16.3626C1.36059 13.8008 1.35997 12.2926 1.55872 9.72575C1.68434 8.09763 3.00997 6.7995 4.64247 6.70575C4.83997 6.6945 5.04372 6.68325 5.25497 6.672C6.00122 6.63138 6.58622 6.0145 6.58622 5.26763V1.93888C6.59309 1.93888 10.6943 6.047 10.6943 6.047C10.9606 6.312 11.3275 6.46388 11.7031 6.45825C13.525 6.44138 14.4162 6.47013 14.59 6.47013C14.845 6.47013 15.0537 6.26575 15.0587 6.0095C15.0637 5.75075 14.8575 5.537 14.5987 5.532C13.5931 5.51388 12.6531 5.51138 11.6943 5.52013C11.5712 5.52013 11.4456 5.47138 11.3575 5.38325L7.24809 1.27575C6.65809 0.687001 5.64747 1.10513 5.64747 1.9395V5.26825C5.64747 5.51763 5.45247 5.72325 5.20372 5.73638C4.99184 5.74763 4.78684 5.75888 4.58809 5.77013C2.48934 5.89075 0.784969 7.56013 0.623094 9.65388C0.421844 12.2589 0.420594 13.8151 0.623094 16.4358C0.666844 16.9989 0.825594 17.552 1.08434 18.052C-0.740031 20.9245 -0.329406 24.7095 2.82372 27.3095V29.9401C2.82372 30.6139 3.51372 31.067 4.13059 30.802L7.31997 29.437C10.4643 30.1157 13.8225 29.5033 16.29 27.8014C16.5031 27.6545 16.5568 27.3626 16.41 27.1495C16.2631 26.9364 15.9712 26.8826 15.7581 27.0295C13.3943 28.6601 10.27 29.1145 7.52059 28.5214C7.32684 28.4783 7.12872 28.497 6.94872 28.5745L3.76184 29.9408V27.3101C3.76184 27.0301 3.63809 26.767 3.42247 26.5889C1.81997 25.267 0.937469 23.5339 0.937469 21.7089C0.937469 17.8151 4.94997 14.647 9.88184 14.647C14.8137 14.647 18.8262 17.8151 18.8262 21.7089C18.8262 23.1208 18.2987 24.4833 17.3006 25.6495C17.1325 25.8464 17.155 26.142 17.3518 26.3108C17.5487 26.4789 17.8443 26.4564 18.0131 26.2595C18.4768 25.7176 18.8506 25.1364 19.1331 24.5283C19.5156 24.5301 20.0437 24.5333 20.7787 24.5264C20.9056 24.5258 21.0262 24.5739 21.1156 24.6632L25.2225 28.7701C25.8093 29.357 26.8237 28.9439 26.8237 28.107V24.7783C26.8237 24.5289 27.0187 24.3232 27.2675 24.3101C27.4793 24.2989 27.685 24.2876 27.8831 24.2758C29.9818 24.1551 31.6862 22.4858 31.8481 20.392C32.0493 17.7895 32.0506 16.2295 31.8481 13.6114L31.8487 13.6108Z" fill="#212121"/>
<path d="M9.88053 20.4551C9.12053 20.4551 7.5399 20.4563 7.54053 22.1907C7.54115 23.5757 8.5599 24.7532 9.88178 24.7532C11.2037 24.7532 12.223 23.6207 12.2224 22.1882C12.2224 21.4738 11.9512 20.9745 11.4168 20.7038C10.9655 20.4751 10.3949 20.4551 9.88115 20.4551H9.88053ZM9.8824 23.8157C9.08365 23.8157 8.47865 23.0563 8.47803 22.1901C8.47803 21.5826 8.67115 21.3932 9.88115 21.3926C10.2024 21.3926 10.7093 21.397 10.993 21.5401C11.1443 21.617 11.2849 21.7482 11.2849 22.1888C11.2849 23.0857 10.6562 23.8151 9.8824 23.8157Z" fill="#212121"/>
<path d="M13.5213 20.3837L13.52 21.1337C13.52 21.3924 13.7288 21.603 13.9881 21.6037C14.2494 21.6037 14.4575 21.393 14.4581 21.1355L14.4594 20.3855C14.4594 20.1268 14.2506 19.9162 13.9913 19.9155C13.7325 19.9155 13.5219 20.1243 13.5213 20.3837Z" fill="#212121"/>
<path d="M6.1351 19.7163C5.39447 19.7163 4.78885 20.3144 4.7876 21.0613C4.7876 21.3201 4.99635 21.5307 5.25572 21.5313C5.5176 21.5313 5.7251 21.3201 5.72572 21.0632C5.72572 20.8376 5.90885 20.6538 6.13572 20.6538C6.3626 20.6538 6.54635 20.8376 6.54572 21.0651C6.54572 21.3238 6.75447 21.5344 7.01322 21.5351C7.2751 21.5351 7.4826 21.3238 7.48322 21.0676C7.4851 20.3213 6.88135 19.7169 6.1351 19.7169V19.7163Z" fill="#212121"/>
</g>
<defs>
<clipPath id="clip0_56_1758">
<rect width="32" height="29.8775" fill="white" transform="translate(0 1)"/>
</clipPath>
</defs>
</svg>
