<svg width="32" height="32" viewBox="0 0 32 32" fill="none" xmlns="http://www.w3.org/2000/svg">
<g clip-path="url(#clip0_56_1803)">
<path d="M16 28.749C23.03 28.749 28.7487 23.0296 28.7487 16.0002C28.7487 8.97084 23.03 3.25146 16 3.25146C8.96997 3.25146 3.25122 8.97084 3.25122 16.0002C3.25122 23.0296 8.96997 28.749 16 28.749ZM16 4.18896C22.5125 4.18896 27.8112 9.48771 27.8112 16.0002C27.8112 22.5127 22.5125 27.8115 16 27.8115C9.48747 27.8115 4.18872 22.5127 4.18872 16.0002C4.18872 9.48771 9.48747 4.18896 16 4.18896Z" fill="#212121"/>
<path d="M16 22.0269C14.8225 22.0269 13.865 22.985 13.865 24.1619C13.865 25.3387 14.8225 26.2969 16 26.2969C17.1775 26.2969 18.135 25.3387 18.135 24.1619C18.135 22.985 17.1769 22.0269 16 22.0269ZM16 25.3594C15.3394 25.3594 14.8025 24.8219 14.8025 24.1619C14.8025 23.5019 15.34 22.9644 16 22.9644C16.66 22.9644 17.1975 23.5019 17.1975 24.1619C17.1975 24.8219 16.66 25.3594 16 25.3594Z" fill="#212121"/>
<path d="M11.905 14.0137C13.0675 14.0137 14.0131 13.068 14.0131 11.9062C14.0131 11.8118 14.0193 11.718 14.0325 11.6262C14.1693 10.6462 15.0125 9.91866 16.0025 9.91866C16.0156 9.91866 16.0293 9.91866 16.0425 9.91866C17.0781 9.93928 17.9312 10.7643 17.985 11.7968C18.0137 12.3493 17.8206 12.8737 17.4418 13.273C17.0625 13.673 16.5506 13.893 16.0006 13.893C14.8381 13.893 13.8925 14.8387 13.8925 16.0012V18.9343C13.8925 20.0968 14.8381 21.0424 16.0006 21.0424C17.1631 21.0424 18.1087 20.0968 18.1087 18.9343V17.7374C19.0162 17.4087 19.8375 16.8737 20.4993 16.1762C21.6825 14.9299 22.285 13.2974 22.1956 11.5793C22.0281 8.35053 19.3631 5.76991 16.1281 5.70491C12.9893 5.64116 10.2912 7.93678 9.8581 11.0443C9.81872 11.328 9.7981 11.618 9.7981 11.9068C9.7981 13.0693 10.7437 14.0143 11.9056 14.0143L11.905 14.0137ZM10.785 11.173C11.1531 8.53553 13.4431 6.58678 16.1075 6.64178C18.8531 6.69741 21.1156 8.88741 21.2575 11.6274C21.3331 13.0868 20.8218 14.473 19.8175 15.5305C19.1875 16.1943 18.3875 16.6849 17.5037 16.9499C17.3056 17.0093 17.1693 17.1918 17.1693 17.3987V18.9343C17.1693 19.5799 16.6443 20.1049 15.9987 20.1049C15.3531 20.1049 14.8281 19.5799 14.8281 18.9343V16.0012C14.8281 15.3562 15.3531 14.8305 15.9987 14.8305C16.8081 14.8305 17.5612 14.5068 18.12 13.9187C18.6781 13.3312 18.9618 12.5605 18.92 11.7487C18.8412 10.228 17.585 9.01241 16.06 8.98178C16.04 8.98178 16.0206 8.98178 16.0012 8.98178C14.545 8.98178 13.3043 10.0537 13.1031 11.4974C13.0843 11.6318 13.075 11.7693 13.075 11.9068C13.075 12.5518 12.55 13.0774 11.9043 13.0774C11.2587 13.0774 10.7337 12.5524 10.7337 11.9068C10.7337 11.6618 10.7506 11.4149 10.7843 11.1737L10.785 11.173Z" fill="#212121"/>
<path d="M16 0C12.1587 0 8.44433 1.38187 5.54183 3.89125C5.34621 4.06063 5.32433 4.35687 5.49371 4.5525C5.66308 4.74875 5.95933 4.77 6.15496 4.60063C8.88746 2.23875 12.3837 0.9375 16 0.9375C24.3056 0.9375 31.0625 7.69438 31.0625 16C31.0625 19.7469 29.6775 23.3387 27.1631 26.1125C26.9893 26.3044 27.0037 26.6006 27.1956 26.7744C27.2856 26.8719 27.6268 26.9794 27.8575 26.7419C30.5287 23.795 32 19.98 32 15.9994C32 11.7256 30.3356 7.7075 27.3137 4.68563C24.2918 1.66375 20.2737 0 16 0Z" fill="#212121"/>
<path d="M16 31.9999C19.7325 31.9999 23.3656 30.6862 26.2306 28.3018C26.4294 28.1362 26.4562 27.8406 26.2906 27.6418C26.125 27.4431 25.8294 27.4162 25.6306 27.5818C22.9338 29.8268 19.5138 31.0631 16 31.0631C7.69438 31.0631 0.9375 24.3062 0.9375 16.0006C0.9375 12.3568 2.25625 8.83993 4.65063 6.09806C4.82063 5.90306 4.80063 5.60681 4.60563 5.43681C4.41062 5.26681 4.11438 5.28681 3.94438 5.48118C1.40125 8.39368 0 12.1293 0 15.9999C0 20.2737 1.66438 24.2918 4.68625 27.3137C7.70813 30.3356 11.7262 31.9999 16 31.9999Z" fill="#212121"/>
</g>
<defs>
<clipPath id="clip0_56_1803">
<rect width="32" height="32" fill="white"/>
</clipPath>
</defs>
</svg>
