<svg width="25" height="32" viewBox="0 0 25 32" fill="none" xmlns="http://www.w3.org/2000/svg">
<g clip-path="url(#clip0_56_1794)">
<path d="M4.67244 6.8474C4.97494 7.14991 5.94119 7.80303 6.86744 6.8474C7.47244 6.2424 7.47244 5.25741 6.86744 4.65241L4.15244 1.93803C3.54744 1.33303 2.55682 1.32678 1.95744 1.93803C1.06682 2.84616 1.66494 3.84053 1.95744 4.13303L4.67244 6.8474ZM2.62057 2.60053C2.97994 2.23553 3.36994 2.48053 3.48994 2.60053L6.20432 5.31491C6.44432 5.55491 6.44432 5.94428 6.20432 6.18428C5.96432 6.42428 5.57494 6.42428 5.33494 6.18428L2.62057 3.46928C2.50557 3.35428 2.26119 2.96491 2.62057 2.59991V2.60053Z" fill="#212121"/>
<path d="M5.21125 10.3439C5.21125 9.48824 4.515 8.79199 3.65875 8.79199H1.5525C0.69625 8.79199 0 9.48824 0 10.3439C0 11.1995 0.69625 11.8964 1.5525 11.8964H3.65937C4.51562 11.8964 5.21187 11.2001 5.21187 10.3439H5.21125ZM0.9375 10.3439C0.9375 10.0051 1.21312 9.72949 1.5525 9.72949H3.65937C3.99813 9.72949 4.27437 10.0051 4.27437 10.3439C4.27437 10.6826 3.99875 10.9589 3.65937 10.9589H1.5525C1.21312 10.9589 0.9375 10.6832 0.9375 10.3439Z" fill="#212121"/>
<path d="M11.027 5.21125C11.8832 5.21125 12.5795 4.515 12.5795 3.65875V1.5525C12.5795 0.69625 11.8832 0 11.027 0C10.1707 0 9.4751 0.69625 9.4751 1.5525V3.65937C9.4751 4.51562 10.1713 5.21187 11.027 5.21187V5.21125ZM10.4126 1.5525C10.4126 1.21312 10.6882 0.9375 11.0276 0.9375C11.367 0.9375 11.642 1.21312 11.642 1.5525V3.65937C11.642 3.99813 11.3663 4.27437 11.0276 4.27437C10.6888 4.27437 10.4126 3.99875 10.4126 3.65937V1.5525Z" fill="#212121"/>
<path d="M17.3818 6.8475L20.0962 4.13312C20.9655 3.255 20.3887 2.23 20.0962 1.93813C19.4912 1.33312 18.5062 1.33312 17.9012 1.93813C17.718 2.12125 17.718 2.41812 17.9012 2.60125C18.0843 2.78437 18.3812 2.78437 18.5643 2.60125C18.8037 2.36125 19.1937 2.36187 19.4337 2.60125C19.5487 2.71625 19.8112 3.11125 19.4337 3.47062L16.7193 6.18563C16.4799 6.42562 16.0899 6.425 15.8499 6.18563C15.6099 5.94625 15.6099 5.55625 15.8499 5.31625L17.2418 3.92375C17.4249 3.74062 17.4249 3.44375 17.2418 3.26062C17.0587 3.0775 16.7618 3.0775 16.5787 3.26062L15.1862 4.65312C14.5812 5.25812 14.5812 6.24312 15.1862 6.84812C15.4887 7.15063 16.4562 7.69187 17.3812 6.84812L17.3818 6.8475Z" fill="#212121"/>
<path d="M18.395 8.79102C17.5388 8.79102 16.8425 9.48727 16.8425 10.3429C16.8425 11.1985 17.5388 11.8954 18.395 11.8954H20.5019C21.3582 11.8954 22.0544 11.1991 22.0544 10.3429C22.0544 9.48664 21.3582 8.79102 20.5019 8.79102H18.395ZM21.1163 10.3435C21.1163 10.6829 20.8407 10.9585 20.5013 10.9585H18.3944C18.055 10.9585 17.7794 10.6829 17.7794 10.3435C17.7794 10.0041 18.055 9.72914 18.3944 9.72914H20.5013C20.84 9.72914 21.1163 10.0048 21.1163 10.3435Z" fill="#212121"/>
<path d="M22.3837 13.3861C21.6099 13.3861 20.9218 13.7598 20.4906 14.3367C20.0599 13.7598 19.3718 13.3861 18.5974 13.3861C17.8231 13.3861 17.1356 13.7598 16.7043 14.3367C16.2737 13.7598 15.5856 13.3861 14.8112 13.3861C14.2768 13.3861 13.7831 13.5648 13.3868 13.8655V8.38922C13.3868 7.08672 12.3274 6.02734 11.0249 6.02734C9.72243 6.02734 8.66305 7.08672 8.66305 8.38922V19.4073L7.05618 18.0105C5.45243 16.7267 4.1368 17.7692 3.72493 18.2436C2.91555 19.1742 2.99493 20.5273 3.91743 21.5348L4.84743 22.5836C5.07493 22.8205 5.41993 22.7023 5.5093 22.6236C5.70305 22.4517 5.72055 22.1555 5.54868 21.9617L4.61618 20.9098C4.61618 20.9098 4.61243 20.9061 4.61055 20.9042C3.99993 20.2386 3.92493 19.4311 4.4318 18.8586C5.22743 17.9592 6.15555 18.4698 6.44055 18.718L8.66243 20.6492V23.9598C8.66243 24.5523 8.72743 25.1292 8.84993 25.6861L6.79805 23.3723C6.62618 23.1786 6.32993 23.1605 6.13618 23.3323C5.94243 23.5042 5.92493 23.8005 6.09618 23.9942L10.0024 28.3998C11.4443 30.568 13.9087 32.0005 16.7024 32.0005C21.1356 32.0005 24.7424 28.3936 24.7424 23.9605V15.7486C24.7424 14.4461 23.6831 13.3867 22.3806 13.3867L22.3837 13.3861ZM22.3837 14.3236C23.1687 14.3236 23.8081 14.9623 23.8081 15.748V16.8105H20.9599V15.748C20.9599 14.963 21.5987 14.3236 22.3843 14.3236H22.3837ZM18.5981 14.3236C19.3837 14.3236 20.0224 14.9623 20.0224 15.748V16.8105H17.1743V15.748C17.1743 14.963 17.8131 14.3236 18.5987 14.3236H18.5981ZM14.8124 14.3236C15.5981 14.3236 16.2368 14.9623 16.2368 15.748V16.8105H13.3887V15.748C13.3887 14.963 14.0274 14.3236 14.8131 14.3236H14.8124ZM11.0268 6.96484C11.8124 6.96484 12.4512 7.60359 12.4512 8.38922V16.8105H9.60305V8.38922C9.60305 7.60359 10.2418 6.96484 11.0274 6.96484H11.0268ZM23.8081 23.9598C23.8081 27.8761 20.6218 31.0623 16.7056 31.0623C12.7893 31.0623 9.60305 27.8761 9.60305 23.9598V17.7473H23.8081V23.9598Z" fill="#212121"/>
</g>
<defs>
<clipPath id="clip0_56_1794">
<rect width="24.7456" height="32" fill="white"/>
</clipPath>
</defs>
</svg>
