<svg width="32" height="32" viewBox="0 0 32 32" fill="none" xmlns="http://www.w3.org/2000/svg">
<g clip-path="url(#clip0_56_1745)">
<path d="M17.5156 22.7549H14.4844C14.2256 22.7549 14.0156 22.9649 14.0156 23.2236C14.0156 23.4824 14.2256 23.6924 14.4844 23.6924H17.5156C17.7744 23.6924 17.9844 23.4824 17.9844 23.2236C17.9844 22.9649 17.7744 22.7549 17.5156 22.7549Z" fill="#212121"/>
<path d="M14.4844 16.1924H17.5156C17.7744 16.1924 17.9844 15.9824 17.9844 15.7236C17.9844 15.4649 17.7744 15.2549 17.5156 15.2549H14.4844C14.2256 15.2549 14.0156 15.4649 14.0156 15.7236C14.0156 15.9824 14.2256 16.1924 14.4844 16.1924Z" fill="#212121"/>
<path d="M12.9688 21.1924H19.0312C19.29 21.1924 19.5 20.9824 19.5 20.7236C19.5 20.4649 19.29 20.2549 19.0312 20.2549H12.9688C12.71 20.2549 12.5 20.4649 12.5 20.7236C12.5 20.9824 12.71 21.1924 12.9688 21.1924Z" fill="#212121"/>
<path d="M12.9688 18.6924H19.0312C19.29 18.6924 19.5 18.4824 19.5 18.2236C19.5 17.9649 19.29 17.7549 19.0312 17.7549H12.9688C12.71 17.7549 12.5 17.9649 12.5 18.2236C12.5 18.4824 12.71 18.6924 12.9688 18.6924Z" fill="#212121"/>
<path d="M30.125 17.985V14.125C30.125 10.3519 28.6556 6.805 25.9881 4.13688C23.32 1.46938 19.7731 0 16 0C12.2269 0 8.68 1.46938 6.01188 4.13688C3.34438 6.805 1.875 10.3519 1.875 14.125V17.985C0.80625 18.2025 0 19.15 0 20.2812V27.7812C0 29.0737 1.05125 30.125 2.34375 30.125H3.79688C4.01438 31.1938 4.96187 32 6.09375 32C7.38625 32 8.4375 30.9487 8.4375 29.6562V29.5H8.59375C9.72563 29.5 10.6725 28.6938 10.89 27.625H21.1094C21.3269 28.6938 22.2744 29.5 23.4056 29.5H23.5619V29.6562C23.5619 30.9487 24.6131 32 25.9056 32C27.0375 32 27.9844 31.1938 28.2019 30.125H29.6556C30.9481 30.125 31.9994 29.0737 31.9994 27.7812V20.2812C31.9994 19.1494 31.1931 18.2025 30.1244 17.985H30.125ZM16 0.9375C23.2719 0.9375 29.1875 6.85313 29.1875 14.125V17.9375H28.2025C28.0156 17.0206 27.2919 16.2963 26.375 16.11V14.125C26.375 10.7056 24.69 7.50625 21.8681 5.5675C21.655 5.42063 21.3631 5.475 21.2162 5.68813C21.0694 5.90125 21.1238 6.19313 21.3369 6.34C22.0188 6.80813 22.6263 7.35812 23.1531 7.97C22.0881 8.92062 20.5362 9.09813 19.3137 8.38875C18.31 7.80688 17.1644 7.49937 16 7.49937C14.8356 7.49937 13.69 7.80688 12.6869 8.38875C11.4644 9.0975 9.915 8.92063 8.84937 7.97188C10.5812 5.96125 13.1444 4.68687 16 4.68687C17.3125 4.68687 18.5825 4.95125 19.7744 5.47188C20.0113 5.57563 20.2881 5.4675 20.3919 5.23C20.4956 4.9925 20.3869 4.71625 20.15 4.6125C18.8387 4.03938 17.4425 3.74938 16 3.74938C10.2794 3.74938 5.625 8.40375 5.625 14.1244V16.1087C4.70813 16.2956 3.98438 17.0194 3.79688 17.9363H2.81188V14.1237C2.81188 6.85187 8.7275 0.93625 15.9994 0.93625L16 0.9375ZM23.5625 18.4062V18.5625H23.4062C23.1325 18.5625 22.8694 18.61 22.625 18.6969V13.0413C22.625 12.0938 21.8538 11.3225 20.9062 11.3225H11.0938C10.1462 11.3225 9.375 12.0938 9.375 13.0413V18.6969C9.13062 18.61 8.8675 18.5625 8.59375 18.5625H8.4375V18.4062C8.4375 17.2744 7.63125 16.3275 6.5625 16.11V14.125C6.5625 12.1131 7.19562 10.2463 8.27312 8.71313C9.06812 9.40125 10.0669 9.76 11.07 9.76C11.7881 9.76 12.5081 9.57688 13.1569 9.20063C14.0181 8.70125 15.0013 8.4375 16 8.4375C16.9988 8.4375 17.9819 8.70125 18.8431 9.20063C20.3994 10.1031 22.3656 9.89375 23.7294 8.71187C24.8256 10.2781 25.4375 12.1613 25.4375 14.125V16.11C24.3687 16.3275 23.5625 17.275 23.5625 18.4062ZM0.9375 27.7812V20.2812C0.9375 19.5056 1.56813 18.875 2.34375 18.875H3.75V29.1875H2.34375C1.56813 29.1875 0.9375 28.5569 0.9375 27.7812ZM7.5 29.6562C7.5 30.4319 6.86938 31.0625 6.09375 31.0625C5.31812 31.0625 4.6875 30.4319 4.6875 29.6562V18.4062C4.6875 17.6306 5.31812 17 6.09375 17C6.86938 17 7.5 17.6306 7.5 18.4062V29.6562ZM10 27.1562C10 27.9319 9.36938 28.5625 8.59375 28.5625H8.4375V19.5H8.59375C9.36938 19.5 10 20.1306 10 20.9062V21.0513C10 21.31 10.21 21.52 10.4688 21.52C10.7275 21.52 10.9375 21.31 10.9375 21.0513V20.9062C10.9375 20.2925 10.7 19.7331 10.3125 19.315V13.0406C10.3125 12.61 10.6631 12.2594 11.0938 12.2594H20.9062C21.3369 12.2594 21.6875 12.61 21.6875 13.0406V19.315C21.3 19.7331 21.0625 20.2925 21.0625 20.9062V26.6875H10.9375V22.9263C10.9375 22.6675 10.7275 22.4575 10.4688 22.4575C10.21 22.4575 10 22.6675 10 22.9263V27.1562ZM23.4062 28.5625C22.6306 28.5625 22 27.9319 22 27.1562V20.9062C22 20.1306 22.6306 19.5 23.4062 19.5H23.5625V28.5625H23.4062ZM27.3125 29.6562C27.3125 30.4319 26.6819 31.0625 25.9062 31.0625C25.1306 31.0625 24.5 30.4319 24.5 29.6562V18.4062C24.5 17.6306 25.1306 17 25.9062 17C26.6819 17 27.3125 17.6306 27.3125 18.4062V29.6562ZM31.0625 27.7812C31.0625 28.5569 30.4319 29.1875 29.6562 29.1875H28.25V18.875H29.6562C30.4319 18.875 31.0625 19.5056 31.0625 20.2812V27.7812Z" fill="#212121"/>
</g>
<defs>
<clipPath id="clip0_56_1745">
<rect width="32" height="32" fill="white"/>
</clipPath>
</defs>
</svg>
