<svg width="32" height="32" viewBox="0 0 32 32" fill="none" xmlns="http://www.w3.org/2000/svg">
<g clip-path="url(#clip0_56_1816)">
<path d="M13.385 21.9433L16.0643 19.264C16.5093 18.8197 16.7536 18.2285 16.7536 17.5991C16.7536 16.9698 16.5086 16.3792 16.0643 15.9342C15.1462 15.0161 13.6525 15.0161 12.735 15.9342L10.0558 18.6134C9.13767 19.5315 9.13767 21.0246 10.0558 21.9427C10.5001 22.387 11.0913 22.632 11.7207 22.632C12.35 22.632 12.9406 22.387 13.3856 21.9427L13.385 21.9433ZM13.43 16.5698C13.4337 16.566 13.4375 16.5629 13.4412 16.5598C13.6919 16.3348 14.0231 16.1973 14.3862 16.1973C15.1668 16.1973 15.8018 16.8323 15.8018 17.6129C15.8018 17.9772 15.6637 18.3097 15.4368 18.5603C15.4349 18.5622 15.433 18.5647 15.4305 18.5672C15.1718 18.8503 14.7993 19.0284 14.3862 19.0284C13.6056 19.0284 12.9706 18.3935 12.9706 17.6129C12.9706 17.2004 13.1481 16.8291 13.43 16.5698ZM10.7195 19.2772L12.0551 17.9416C12.2007 18.9772 13.0213 19.7978 14.0568 19.9434L12.7213 21.279C12.4538 21.5465 12.0988 21.6933 11.7207 21.6933C11.3426 21.6933 10.987 21.5458 10.7195 21.279C10.1676 20.7271 10.1676 19.829 10.7195 19.2772Z" fill="#212121"/>
<path d="M30.6331 13.7078C32.8412 10.1961 32.3318 5.57375 29.3788 2.62074C28.682 1.92389 27.8845 1.35142 27.0089 0.919559C26.7764 0.804563 26.4952 0.900185 26.3802 1.13268C26.2658 1.36517 26.3608 1.64641 26.5933 1.7614C27.377 2.14826 28.0907 2.66012 28.7145 3.28447C31.2612 5.83124 31.7775 9.76421 30.045 12.8591C29.9138 12.7478 29.7669 12.651 29.6057 12.5735C25.1746 10.4398 21.5591 6.82495 19.4254 2.39325C19.3479 2.23201 19.2517 2.08576 19.1405 1.95452C20.8398 1.00581 22.8609 0.702692 24.7809 1.1258C25.034 1.18205 25.2846 1.02143 25.3402 0.768315C25.3958 0.515199 25.2358 0.264584 24.9827 0.208961C22.6897 -0.296019 20.2667 0.126465 18.2917 1.36704C18.1786 1.32642 18.0611 1.29579 17.9399 1.27517C17.2843 1.16392 16.6381 1.36954 16.1681 1.84015C15.6287 2.3795 15.445 3.17072 15.67 3.88319C14.5075 5.57188 13.9632 7.60742 14.1269 9.66234L8.9021 16.1171C8.73898 16.3183 8.77023 16.6139 8.97147 16.7771C9.05835 16.8477 9.16272 16.8814 9.26646 16.8814C9.40333 16.8814 9.53895 16.8221 9.63145 16.7071L14.3175 10.9179C14.6881 12.5604 15.5206 14.0809 16.7199 15.2796C17.9193 16.479 19.4398 17.3114 21.081 17.682L10.4864 26.2586C9.46395 25.758 8.53462 25.093 7.72027 24.2786C6.90593 23.4643 6.24096 22.535 5.74035 21.5125L8.31962 18.3264C8.48274 18.1251 8.45149 17.8295 8.25025 17.6664C8.04901 17.5033 7.7534 17.5345 7.59028 17.7358L0.806169 26.1161C0.688049 26.2623 0.583678 26.4148 0.491806 26.5723C-0.323787 27.9685 -0.11692 29.7622 1.05991 30.9396C1.14366 31.0234 1.23053 31.1015 1.3199 31.1753C1.77801 31.5534 2.30736 31.8015 2.86109 31.9196C3.10858 31.9721 3.36044 31.9996 3.61293 31.9996C4.22666 31.9996 4.84164 31.8427 5.39599 31.5259C5.56473 31.4296 5.72848 31.319 5.8841 31.1928L8.11151 29.3897L10.8495 27.1729C10.8495 27.1729 10.8502 27.1723 10.8508 27.1717L22.3391 17.8714C22.5784 17.8908 22.8178 17.9001 23.0559 17.9001C24.8634 17.9001 26.6252 17.3545 28.1164 16.3277C28.3163 16.3908 28.522 16.4227 28.727 16.4227C29.2532 16.4227 29.7725 16.2177 30.1613 15.8296C30.6319 15.359 30.8375 14.7134 30.7262 14.0578C30.7056 13.9365 30.675 13.8191 30.6344 13.7059L30.6331 13.7078ZM9.68957 26.9042L7.13155 28.9753L5.29349 30.4634C4.83476 30.8346 4.28853 31.0309 3.73855 31.0565C3.7298 31.0565 3.72106 31.0578 3.71231 31.0578C3.68481 31.059 3.65731 31.059 3.62918 31.059C3.61668 31.059 3.60481 31.0596 3.59231 31.059C3.56856 31.059 3.54481 31.0578 3.52169 31.0571C3.50544 31.0571 3.48919 31.0571 3.47294 31.0559C3.45732 31.0553 3.44232 31.0534 3.42669 31.0521C3.40232 31.0503 3.37794 31.049 3.35294 31.0465C3.34732 31.0465 3.34169 31.0453 3.33544 31.0446C3.3017 31.0409 3.26732 31.0371 3.23357 31.0321C3.2292 31.0321 3.22545 31.0309 3.22107 31.0303C2.67172 30.949 2.14424 30.6959 1.72363 30.2747C0.869292 29.4203 0.705548 28.1272 1.26865 27.1029C1.34427 26.9648 1.43302 26.8317 1.53552 26.7054L5.09538 22.3087C5.61473 23.2731 6.27283 24.1562 7.0578 24.9411C7.84214 25.7255 8.72523 26.3836 9.6902 26.9029L9.68957 26.9042ZM22.2397 16.9214C22.2397 16.9214 22.2391 16.9214 22.2385 16.9214C22.2385 16.9214 22.2378 16.9214 22.2372 16.9214C20.4092 16.7364 18.6855 15.9177 17.3836 14.6159C16.0818 13.3147 15.2631 11.5904 15.0781 9.76171C14.905 8.05553 15.2787 6.35685 16.1349 4.89878L16.2481 5.13314C18.4736 9.75546 22.2447 13.5266 26.8664 15.7515L27.1008 15.8646C25.6433 16.7208 23.9453 17.0946 22.2391 16.9221L22.2397 16.9214ZM29.4963 15.1678C29.1701 15.494 28.6713 15.579 28.2557 15.3784L27.2739 14.9059C22.8428 12.7722 19.2273 9.15736 17.0937 4.72566L16.6212 3.74382C16.4212 3.32821 16.5056 2.82948 16.8318 2.50325C17.0393 2.29575 17.3105 2.18451 17.5955 2.18451C17.6574 2.18451 17.7199 2.18951 17.783 2.20013C17.9005 2.22013 18.0117 2.25826 18.113 2.312C18.1155 2.31325 18.118 2.3145 18.1199 2.31575C18.318 2.42262 18.4786 2.58887 18.5805 2.80074C20.806 7.42305 24.5771 11.1942 29.1988 13.4191C29.4113 13.5216 29.5782 13.6828 29.685 13.8822C29.6857 13.8834 29.6863 13.8847 29.6875 13.8866C29.7413 13.9878 29.7794 14.099 29.7994 14.2172C29.8594 14.569 29.7488 14.9159 29.4963 15.1684V15.1678Z" fill="#212121"/>
<path d="M22.9527 2.8556L22.4215 3.38683C22.2384 3.56995 22.2384 3.86744 22.4215 4.05055C22.5134 4.14242 22.6334 4.18805 22.7534 4.18805C22.8734 4.18805 22.9934 4.14242 23.0852 4.05055L23.6165 3.51932C23.7996 3.33621 23.7996 3.03872 23.6165 2.8556C23.4334 2.67248 23.1359 2.67248 22.9527 2.8556Z" fill="#212121"/>
<path d="M28.6126 9.57692L29.1438 9.04569C29.3269 8.86257 29.3269 8.56509 29.1438 8.38197C28.9607 8.19885 28.6632 8.19885 28.4801 8.38197L27.9489 8.9132C27.7657 9.09631 27.7657 9.3938 27.9489 9.57692C28.0407 9.66879 28.1607 9.71442 28.2807 9.71442C28.4007 9.71442 28.5207 9.66879 28.6126 9.57692Z" fill="#212121"/>
<path d="M25.2727 5.76991C25.2902 5.51117 25.0952 5.28743 24.8364 5.26931C24.5777 5.25056 24.354 5.4468 24.3358 5.70554C24.2996 6.23552 24.494 6.75487 24.8689 7.12986C25.2146 7.47484 25.6814 7.66734 26.167 7.66734C26.2089 7.66734 26.2514 7.66609 26.2933 7.66296C26.552 7.64546 26.747 7.4211 26.7295 7.16236C26.712 6.90362 26.487 6.70862 26.2289 6.72612C25.9689 6.74425 25.7158 6.64925 25.5327 6.46613C25.3496 6.28302 25.2546 6.02928 25.2727 5.76929V5.76991Z" fill="#212121"/>
</g>
<defs>
<clipPath id="clip0_56_1816">
<rect width="31.9975" height="32" fill="white"/>
</clipPath>
</defs>
</svg>
