<svg width="30" height="32" viewBox="0 0 30 32" fill="none" xmlns="http://www.w3.org/2000/svg">
<g clip-path="url(#clip0_56_1811)">
<path d="M28.5799 7.96274L21.8905 4.01899C21.6674 3.88774 21.3793 3.96149 21.248 4.18524C21.1161 4.40836 21.1905 4.69649 21.4143 4.82774L28.1036 8.77149C28.3305 8.90524 28.463 9.14274 28.4574 9.40649C28.4518 9.67024 28.3093 9.90149 28.0761 10.0252L24.798 11.7684L24.8205 10.3396C24.8343 9.49024 24.3761 8.71024 23.6255 8.30336C21.2493 7.01586 17.9518 6.23399 14.578 6.15711C13.7861 6.13899 13.0161 6.16211 12.273 6.22274C12.3749 4.18211 12.7824 2.54899 13.0261 1.73086C13.5299 1.44649 13.9536 1.20836 14.2674 1.03149C14.4899 0.905862 14.7649 0.908987 14.9874 1.04024L19.7793 3.82274C20.0036 3.95274 20.2905 3.87649 20.4205 3.65274C20.5505 3.42836 20.4743 3.14149 20.2505 3.01149L15.4618 0.228987C14.9543 -0.0703881 14.3205 -0.0766381 13.8068 0.212737C13.5649 0.348987 13.2568 0.522737 12.8986 0.724612C12.7361 0.483362 12.4861 0.311487 12.1999 0.250862C10.8886 -0.0278881 9.52114 0.272737 8.44801 1.07711C7.42301 1.84461 6.76614 2.99961 6.62614 4.26461C4.45739 5.49024 2.29864 6.71274 0.835513 7.54774C0.304263 7.84961 -0.00761188 8.39524 -0.000111884 9.00711C0.00801312 9.61899 0.334263 10.1571 0.873638 10.4465L4.60801 12.4515L4.68114 17.3984C4.68301 17.5084 4.72301 17.6121 4.79239 17.694C3.44989 21.2565 4.07301 25.429 6.76801 28.4715C10.5968 32.7934 17.3986 33.2071 21.723 29.3759C23.8411 27.4996 25.1018 24.9102 25.2724 22.0859C25.3618 20.6034 25.1443 19.1496 24.6474 17.7959C24.683 17.7302 24.7036 17.6565 24.7049 17.5796L24.7805 12.8415L28.5161 10.8546C29.053 10.569 29.3811 10.0359 29.3949 9.42774C29.408 8.81961 29.1036 8.27274 28.5799 7.96399V7.96274ZM7.54614 4.49399C7.71239 2.29899 9.85176 0.710237 12.0049 1.16836C12.1518 1.19961 12.1443 1.29649 12.1443 1.40211C11.758 2.68086 10.9243 6.07211 11.518 9.94211C11.543 10.1052 11.4349 10.1859 11.3868 10.2127C11.3393 10.2396 11.2155 10.2902 11.0905 10.1846L9.87551 9.16274C9.65676 8.97899 9.31489 9.03711 9.16926 9.28336L8.31926 10.7215C8.23489 10.8646 8.09926 10.8565 8.04489 10.8459C7.99051 10.8359 7.86176 10.7946 7.83489 10.6315C7.59864 9.21086 7.35739 6.99274 7.54676 4.49399H7.54614ZM6.64864 8.74149C6.71864 9.52586 6.81364 10.2177 6.90801 10.7859C6.99176 11.2896 7.36989 11.6752 7.87176 11.769C8.36676 11.8615 8.87051 11.6327 9.12676 11.199L9.69489 10.2377L10.4855 10.9027C11.3218 11.6059 12.6099 10.8715 12.4449 9.79961C12.3043 8.88524 12.248 7.99899 12.248 7.16461C12.9886 7.10086 13.7593 7.07649 14.5555 7.09524C17.7374 7.16774 20.9605 7.92774 23.1768 9.12836C23.6186 9.36774 23.8886 9.82586 23.8805 10.324L23.7774 16.7927C22.1018 16.0009 19.5193 15.4246 16.7805 15.2515C16.2274 15.2165 15.6155 15.194 14.9536 15.194C12.4049 15.194 9.11739 15.524 5.60864 16.7277L5.51239 10.2059C5.50551 9.75711 5.72426 9.33711 6.09739 9.08274C6.27301 8.96336 6.45676 8.84961 6.64801 8.74024L6.64864 8.74149ZM4.57489 10.2209L4.59176 11.3771L1.31739 9.61899C1.08364 9.49336 0.941763 9.26024 0.938638 8.99461C0.935513 8.72961 1.07051 8.49274 1.30114 8.36149C2.64364 7.59586 4.57239 6.50274 6.55676 5.38086C6.52676 6.20274 6.53864 6.98586 6.57676 7.71149C6.22051 7.89524 5.88426 8.09336 5.57051 8.30774C4.93614 8.74024 4.56426 9.45524 4.57551 10.2202L4.57489 10.2209ZM5.82239 17.649C7.27176 17.1459 8.71301 16.7859 10.1161 16.544C9.93676 17.4215 9.65614 18.2896 9.27614 19.1321C8.38989 21.0977 7.04364 22.749 5.36989 23.9302C4.81989 21.8509 4.97801 19.6315 5.82239 17.6496V17.649ZM16.6536 30.899C13.3793 31.5709 9.84176 30.5252 7.47051 27.8484C6.66989 26.9446 6.07114 25.9309 5.66864 24.8634C7.59176 23.5765 9.13426 21.7309 10.1318 19.5184C10.5899 18.5034 10.913 17.4527 11.1005 16.3921C12.6749 16.1771 14.1905 16.1059 15.6036 16.139C14.6618 17.629 14.4068 18.939 14.8449 20.0352C15.1918 20.9027 15.933 21.4827 16.6336 22.0559C17.2555 22.5652 18.0668 23.2146 18.0768 24.1009C18.083 24.6359 17.7661 25.1477 17.4318 25.6896C17.3155 25.8777 17.1955 26.0721 17.0874 26.2709C16.3199 27.6784 16.1674 29.3777 16.6555 30.899H16.6536ZM24.3355 22.0284C24.1799 24.6027 23.0305 26.9627 21.1005 28.6727C20.0424 29.6096 18.8349 30.2721 17.5649 30.6652C17.1418 29.3852 17.2661 27.9015 17.9099 26.7202C18.0061 26.544 18.1143 26.3684 18.2293 26.1834C18.6018 25.5809 19.0236 24.8977 19.0149 24.0909C18.9905 21.8946 16.4236 21.4565 15.7161 19.6871C15.2449 18.6509 16.0393 16.9546 16.7005 16.1871C19.7811 16.3815 22.2661 17.0615 23.6293 17.7684C24.1793 19.1002 24.4255 20.549 24.3361 22.0296L24.3355 22.0284Z" fill="#212121"/>
<path d="M11.8612 21.4586C10.6531 21.5805 10.0187 23.3436 9.82747 24.9617C9.76747 25.4674 9.52934 28.0105 10.7062 28.3967C10.8418 28.4411 10.9762 28.4605 11.1075 28.4605C11.5437 28.4605 11.9425 28.2499 12.2287 28.0717C12.9475 27.6242 13.6137 27.1105 14.2093 26.5442C15.2175 25.5861 15.6193 24.6974 15.4375 23.8267C15.1737 22.563 13.3975 21.1955 11.8612 21.4592V21.4586ZM13.5625 25.8636C13.2631 26.148 11.1568 28.0786 10.8725 27.2824C10.6943 26.783 10.5812 25.5549 10.9275 24.1292C11.0643 23.5649 11.3243 22.5117 12.0075 22.3867C12.9968 22.2074 14.3493 23.2061 14.5187 24.0186C14.6268 24.5374 14.305 25.1586 13.5625 25.8642V25.8636Z" fill="#212121"/>
</g>
<defs>
<clipPath id="clip0_56_1811">
<rect width="29.3956" height="32" fill="white"/>
</clipPath>
</defs>
</svg>
