<svg width="32" height="32" viewBox="0 0 32 32" fill="none" xmlns="http://www.w3.org/2000/svg">
<g clip-path="url(#clip0_56_1833)">
<path d="M2.23926 15.4517V16.1367C2.23926 16.3954 2.44926 16.6054 2.70801 16.6054C2.96676 16.6054 3.17676 16.3954 3.17676 16.1367V15.4517C3.17676 15.1929 2.96676 14.9829 2.70801 14.9829C2.44926 14.9829 2.23926 15.1929 2.23926 15.4517Z" fill="#1D1D1B"/>
<path d="M10.2781 16.6054C10.5368 16.6054 10.7468 16.3954 10.7468 16.1367V15.4517C10.7468 15.1929 10.5368 14.9829 10.2781 14.9829C10.0193 14.9829 9.80933 15.1929 9.80933 15.4517V16.1367C9.80933 16.3954 10.0193 16.6054 10.2781 16.6054Z" fill="#1D1D1B"/>
<path d="M6.49305 16.9711C6.99243 16.9711 7.4618 16.7617 7.78055 16.3974C7.95118 16.2024 7.93118 15.9061 7.73618 15.7361C7.54118 15.5655 7.24493 15.5855 7.07493 15.7805C6.9343 15.9411 6.72243 16.0336 6.49368 16.0336C6.26493 16.0336 6.05305 15.9411 5.91243 15.7805C5.7418 15.5855 5.44618 15.5655 5.25118 15.7361C5.05618 15.9067 5.03618 16.2024 5.2068 16.3974C5.52555 16.7617 5.9943 16.9711 6.49368 16.9711H6.49305Z" fill="#1D1D1B"/>
<path d="M30.205 9.85612C29.0675 8.08487 27.4638 6.66799 25.5669 5.75862C25.3338 5.64674 25.0531 5.74487 24.9413 5.97862C24.8294 6.21174 24.9281 6.49237 25.1613 6.60424C26.9006 7.43862 28.3719 8.73862 29.4156 10.363C30.4925 12.0399 31.0619 13.9811 31.0619 15.9774C31.0619 17.9736 30.4925 19.9155 29.4156 21.5917C28.3719 23.2167 26.9006 24.5161 25.1606 25.3505C24.9275 25.4624 24.8288 25.7424 24.9406 25.9761C25.0506 26.2061 25.3363 26.3061 25.5663 26.1961C27.4631 25.2867 29.0669 23.8699 30.2044 22.0986C31.3788 20.2705 31.9994 18.1536 31.9994 15.9774C31.9994 13.8011 31.3788 11.6842 30.2044 9.85674L30.205 9.85612Z" fill="#1D1D1B"/>
<path d="M27.3412 20.2587C28.1625 18.9806 28.5962 17.5 28.5962 15.9768C28.5962 14.4543 28.1625 12.9737 27.3412 11.6956C26.545 10.4556 25.4225 9.46372 24.095 8.82747C23.8618 8.71559 23.5818 8.81372 23.4693 9.04747C23.3575 9.28059 23.4556 9.56059 23.6893 9.67309C24.86 10.2343 25.85 11.1093 26.5518 12.2025C27.2756 13.3293 27.6581 14.6343 27.6581 15.9775C27.6581 17.3206 27.2756 18.6256 26.5518 19.7525C25.8493 20.8462 24.8593 21.7206 23.6887 22.2818C23.4556 22.3937 23.3568 22.6737 23.4687 22.9075C23.5475 23.0718 23.7175 23.1706 23.8918 23.1718C23.9606 23.1725 24.0293 23.1581 24.0943 23.1275C25.4218 22.4912 26.5443 21.4993 27.3406 20.2593L27.3412 20.2587Z" fill="#1D1D1B"/>
<path d="M25.1931 15.9769C25.1931 14.2463 24.1844 12.6451 22.6237 11.8963C22.3906 11.7844 22.1106 11.8826 21.9981 12.1163C21.8862 12.3494 21.9844 12.6294 22.2181 12.7419C23.4556 13.3357 24.2556 14.6057 24.2556 15.9776C24.2556 17.3494 23.4556 18.6194 22.2181 19.2132C21.985 19.3251 21.8862 19.6051 21.9981 19.8388C22.1081 20.0682 22.3944 20.1688 22.6237 20.0588C24.185 19.3101 25.1931 17.7082 25.1931 15.9782V15.9769Z" fill="#1D1D1B"/>
<path d="M17.8581 5.32821L12.365 9.31384H2.56C1.14875 9.31384 0 10.4626 0 11.8738V20.0801C0 21.4913 1.14875 22.6401 2.56 22.6401H12.365C12.365 22.6401 17.8531 26.6226 17.8581 26.6257C19.0081 27.4601 20.6781 26.6082 20.6781 25.1876V6.76571C20.6781 5.34759 19.005 4.49571 17.8581 5.32759V5.32821ZM12.0487 21.7026H2.56C1.66562 21.7026 0.9375 20.9745 0.9375 20.0801V11.8738C0.9375 10.9795 1.66562 10.2513 2.56 10.2513H12.0487V21.7026ZM19.7406 25.1882C19.7406 25.8576 18.9538 26.2626 18.4088 25.867L12.9862 21.932V10.0213C12.9862 10.0213 18.3981 6.09384 18.4088 6.08634C18.9538 5.69071 19.7406 6.09259 19.7406 6.76571V25.1882Z" fill="#1D1D1B"/>
</g>
<defs>
<clipPath id="clip0_56_1833">
<rect width="32" height="21.955" fill="white" transform="translate(0 5)"/>
</clipPath>
</defs>
</svg>
