<svg width="31" height="32" viewBox="0 0 31 32" fill="none" xmlns="http://www.w3.org/2000/svg">
<g clip-path="url(#clip0_56_1784)">
<path d="M30.1175 14.4306C30.1175 13.8031 29.8731 13.2125 29.4287 12.7681C28.985 12.3237 28.3944 12.0794 27.7663 12.0794C27.1381 12.0794 26.5475 12.3244 26.1031 12.7688C26.085 12.7869 25.84 13.0319 25.4438 13.4281C25.4419 13.43 25.44 13.4319 25.4381 13.4338L24.47 14.4025V9.2075C24.47 7.96313 24.0387 6.74625 23.2563 5.78188C22.5469 4.9075 21.5763 4.27187 20.5012 3.96937C20.1987 2.89375 19.5631 1.92375 18.6887 1.21438C17.7237 0.43125 16.5069 0 15.2625 0H12.5519C12.2931 0 12.0831 0.21 12.0831 0.46875C12.0831 0.7275 12.2931 0.9375 12.5519 0.9375H15.2625C16.2925 0.9375 17.2994 1.29437 18.0975 1.94125C18.7 2.43 19.1656 3.06813 19.4494 3.78125C19.3094 3.77063 19.1681 3.76437 19.0275 3.76437H8.14C5.7275 3.76437 3.765 5.72687 3.765 8.13937V27.2425C2.145 26.9563 0.9375 25.5544 0.9375 23.8587V4.375C0.9375 2.47937 2.47937 0.9375 4.375 0.9375H10.3556C10.6144 0.9375 10.8244 0.7275 10.8244 0.46875C10.8244 0.21 10.6144 0 10.3556 0H4.375C1.9625 0 0 1.9625 0 4.375V23.8594C0 25.0012 0.436875 26.0813 1.23063 26.9013C1.925 27.6188 2.82625 28.07 3.80375 28.1969C4.08563 30.3394 5.92188 31.9994 8.14 31.9994H16.2506C16.5094 31.9994 16.7194 31.7894 16.7194 31.5306C16.7194 31.2719 16.5094 31.0619 16.2506 31.0619H8.14C6.24438 31.0619 4.7025 29.52 4.7025 27.6244V8.14C4.7025 6.24438 6.24438 4.7025 8.14 4.7025H17.8844V7.575C17.8844 9.105 19.1294 10.35 20.6594 10.35H23.5319V15.3394C21.3994 17.4719 18.5919 20.2794 17.7894 21.0819C17.7875 21.0837 17.785 21.0856 17.7831 21.0875C17.7812 21.0894 17.7794 21.0919 17.7775 21.0938C17.6963 21.175 17.6356 21.2356 17.6012 21.27C17.6 21.2712 17.5987 21.2725 17.5975 21.2738C17.5944 21.2769 17.5906 21.2806 17.5875 21.2838C17.5756 21.2956 17.5687 21.3025 17.5675 21.3037C16.9862 21.8987 16.6156 22.6794 16.5238 23.5069L16.3644 24.9438H7.0575C6.79875 24.9438 6.58875 25.1537 6.58875 25.4125C6.58875 25.6713 6.79875 25.8813 7.0575 25.8813H21.1769C21.4356 25.8813 21.6456 25.6713 21.6456 25.4125C21.6456 25.1537 21.4356 24.9438 21.1769 24.9438H20.5238C20.6644 24.8381 20.7975 24.7237 20.9225 24.5987L21.1025 24.4188C21.1025 24.4188 21.1069 24.415 21.1087 24.4131C21.1106 24.4112 21.1125 24.4088 21.1144 24.4069L21.705 23.8162C22.1875 23.3337 22.84 22.6812 23.5319 21.9894V27.625C23.5319 29.5206 21.99 31.0625 20.0944 31.0625H18.4469C18.1881 31.0625 17.9781 31.2725 17.9781 31.5312C17.9781 31.79 18.1881 32 18.4469 32H20.0944C22.5069 32 24.4694 30.0375 24.4694 27.625V21.0519C25.9762 19.545 27.3956 18.1256 27.4312 18.09L28.7625 16.7594C28.7625 16.7594 28.7631 16.7588 28.7638 16.7581L29.4275 16.0938C29.8719 15.6494 30.1162 15.0594 30.1162 14.4312L30.1175 14.4306ZM20.6594 9.4125C19.6462 9.4125 18.8219 8.58813 18.8219 7.575V4.7025H19.0275C19.36 4.7025 19.6919 4.73875 20.0138 4.81125C20.9963 5.03063 21.8894 5.58437 22.5281 6.37187C23.1756 7.17 23.5319 8.17688 23.5319 9.20687V9.4125H20.6594ZM17.4556 23.6112C17.5181 23.0487 17.7525 22.5156 18.1213 22.0888L20.1087 24.0763C19.6819 24.4444 19.1488 24.6787 18.5863 24.7412L17.315 24.8825L17.4562 23.6112H17.4556ZM21.0425 23.1531L20.7769 23.4188L18.7781 21.42L22.4956 17.7025C23.0481 17.15 23.7575 16.4406 24.4387 15.7594L26.4375 17.7588L21.0425 23.1537V23.1531ZM27.1006 17.0956L25.1012 15.0962C25.3394 14.8581 25.5656 14.6319 25.7694 14.4281L27.7687 16.4275L27.1 17.0956H27.1006ZM28.7656 15.43L28.4319 15.7638L26.4325 13.7644C26.6419 13.555 26.7656 13.4313 26.7669 13.43C27.0337 13.1631 27.3888 13.0156 27.7663 13.0156C28.1438 13.0156 28.4988 13.1625 28.7656 13.43C29.0331 13.6969 29.18 14.0519 29.18 14.4294C29.18 14.8069 29.0331 15.1619 28.7656 15.4288V15.43Z" fill="#212121"/>
<path d="M7.05762 23.0576H10.8226C11.0814 23.0576 11.2914 22.8476 11.2914 22.5889C11.2914 22.3301 11.0814 22.1201 10.8226 22.1201H7.05762C6.79887 22.1201 6.58887 22.3301 6.58887 22.5889C6.58887 22.8476 6.79887 23.0576 7.05762 23.0576Z" fill="#212121"/>
<path d="M7.05762 20.2339H16.4707C16.7295 20.2339 16.9395 20.0239 16.9395 19.7651C16.9395 19.5064 16.7295 19.2964 16.4707 19.2964H7.05762C6.79887 19.2964 6.58887 19.5064 6.58887 19.7651C6.58887 20.0239 6.79887 20.2339 7.05762 20.2339Z" fill="#212121"/>
<path d="M7.05762 17.4102H19.2945C19.5532 17.4102 19.7632 17.2002 19.7632 16.9414C19.7632 16.6827 19.5532 16.4727 19.2945 16.4727H7.05762C6.79887 16.4727 6.58887 16.6827 6.58887 16.9414C6.58887 17.2002 6.79887 17.4102 7.05762 17.4102Z" fill="#212121"/>
<path d="M7.05762 14.5864H21.177C21.4357 14.5864 21.6457 14.3764 21.6457 14.1177C21.6457 13.8589 21.4357 13.6489 21.177 13.6489H7.05762C6.79887 13.6489 6.58887 13.8589 6.58887 14.1177C6.58887 14.3764 6.79887 14.5864 7.05762 14.5864Z" fill="#212121"/>
<path d="M7.05762 11.7627H14.5876C14.8464 11.7627 15.0564 11.5527 15.0564 11.2939C15.0564 11.0352 14.8464 10.8252 14.5876 10.8252H7.05762C6.79887 10.8252 6.58887 11.0352 6.58887 11.2939C6.58887 11.5527 6.79887 11.7627 7.05762 11.7627Z" fill="#212121"/>
<path d="M13.1763 22.1201C12.9175 22.1201 12.7075 22.3301 12.7075 22.5889C12.7075 22.8476 12.9175 23.0576 13.1763 23.0576H15.0588C15.3175 23.0576 15.5275 22.8476 15.5275 22.5889C15.5275 22.3301 15.3175 22.1201 15.0588 22.1201H13.1763Z" fill="#212121"/>
</g>
<defs>
<clipPath id="clip0_56_1784">
<rect width="30.1175" height="32" fill="white"/>
</clipPath>
</defs>
</svg>
