<svg width="31" height="32" viewBox="0 0 31 32" fill="none" xmlns="http://www.w3.org/2000/svg">
<g clip-path="url(#clip0_56_1824)">
<path d="M30.2264 8.48119C30.1964 7.36932 29.8657 6.28432 29.2707 5.34244C29.1326 5.12369 28.8426 5.05807 28.6239 5.19682C28.4051 5.33494 28.3395 5.62494 28.4782 5.84369C28.9832 6.64307 29.2639 7.56369 29.2895 8.50682C29.3576 11.0256 27.6282 13.2568 25.177 13.8124C24.7226 13.9156 24.3232 14.1962 24.0807 14.5831C23.5295 15.4624 22.5845 16.0243 21.5482 16.0849C21.492 16.0887 21.4307 16.0906 21.3614 16.0906C21.0607 16.0906 20.7645 16.0493 20.4801 15.9681C19.7526 15.7612 19.1182 15.2987 18.6945 14.6656C18.3195 14.1056 17.6414 13.8062 16.9689 13.9018C16.7445 13.9337 16.5145 13.9468 16.2864 13.9424C14.5114 13.9043 12.9514 12.7374 12.4039 11.0387C12.2914 10.6918 12.2251 10.3306 12.2082 9.96307C12.2082 9.96244 12.2082 9.96119 12.2082 9.96057C12.2045 9.88932 12.2032 9.81307 12.2039 9.72744C12.2207 7.93182 13.3789 6.35307 15.0864 5.79807C15.6395 5.61744 16.072 5.17369 16.242 4.61057C16.427 4.00244 16.7882 3.46807 17.2714 3.06994C17.3064 3.18432 17.3551 3.29557 17.4176 3.40182C17.6939 3.86869 18.1826 4.14744 18.7245 4.14744H18.7532C19.2901 4.14744 19.7976 3.84932 20.0776 3.36869C20.1082 3.31682 20.1464 3.26869 20.192 3.22619C20.3139 3.11244 20.4851 3.05119 20.6657 3.05932C20.8339 3.06682 20.982 3.13307 21.0839 3.24557C21.2057 3.38057 21.2526 3.57494 21.2126 3.77807C21.1726 3.98432 21.0489 4.15557 20.8826 4.23682C19.7901 4.76682 19.0845 5.90369 19.0845 7.13244V8.06369C19.0845 8.90682 19.7707 9.59307 20.6139 9.59307C21.0226 9.59307 21.4064 9.43432 21.6951 9.14494C21.9839 8.85619 22.1432 8.47182 22.1432 8.06369V7.13244C22.1432 7.06869 22.1745 7.00994 22.2189 6.98807C22.9332 6.64119 23.5251 6.06432 23.8851 5.36369C24.1995 4.75244 24.3307 4.05619 24.2832 3.37494C25.3007 3.42807 26.2714 3.77244 27.1032 4.37807C27.1864 4.43869 27.2832 4.46807 27.3789 4.46807C27.5239 4.46807 27.6664 4.40119 27.7582 4.27494C27.9107 4.06557 27.8645 3.77244 27.6551 3.61994C26.6114 2.86057 25.3826 2.45057 24.097 2.43119C24.0095 2.16869 23.8932 1.91682 23.7476 1.68119C23.1076 0.645566 21.9089 0.00244141 20.6201 0.00244141C19.682 0.00244141 18.7889 0.353691 18.1057 0.991191C17.8357 1.24307 17.6064 1.53432 17.4226 1.85682C16.4245 2.36807 15.6714 3.26369 15.3445 4.33932C15.2626 4.60932 15.0576 4.82182 14.7957 4.90744C12.7582 5.56994 11.3601 7.42369 11.2714 9.55369C10.8101 9.59744 10.3564 9.66869 9.91698 9.76682C9.73823 9.80619 9.55698 9.76494 9.41948 9.65307C8.69073 9.05869 7.81386 8.66244 6.88511 8.50619C6.88011 8.50557 6.87511 8.50432 6.87011 8.50369C6.86636 8.50369 6.86198 8.50244 6.85823 8.50182C6.27636 8.40807 5.69886 8.58994 5.27261 8.99994C4.85323 9.40307 4.65323 9.96244 4.72323 10.5343C4.73386 10.6306 4.74573 10.7268 4.75886 10.8231C4.77261 10.9224 4.72323 10.9874 4.69198 11.0174C4.66198 11.0468 4.59636 11.0937 4.50198 11.0774H4.49886C4.48823 11.0749 4.47761 11.0731 4.46698 11.0712C3.96198 10.9899 3.46073 11.1468 3.09011 11.5024C2.72573 11.8524 2.55198 12.3381 2.61261 12.8343C2.68386 13.4831 2.82823 14.1324 3.04136 14.7643C3.08698 14.8999 3.07761 15.0518 3.01636 15.1818C2.56323 16.1331 2.27636 17.1349 2.16323 18.1593C2.15323 18.2412 2.15011 18.3224 2.15261 18.4031C0.897607 18.8093 0.000732422 20.0024 0.000732422 21.3537C0.000732422 23.0306 1.33948 24.3999 3.00448 24.4512C3.48011 26.1837 4.35386 27.7587 5.54698 29.0237C5.63948 29.1218 5.76323 29.1712 5.88823 29.1712C6.00386 29.1712 6.11886 29.1287 6.20948 29.0437C6.39761 28.8662 6.40636 28.5693 6.22886 28.3812C5.06386 27.1449 4.23073 25.5831 3.82073 23.8631C3.62448 23.0418 3.52948 22.1987 3.53823 21.3587C3.53823 21.3556 3.53823 21.3524 3.53823 21.3487C3.53323 20.8774 3.56136 20.4043 3.62136 19.9374C3.66698 19.9412 3.71198 19.9437 3.75761 19.9437C3.84511 19.9437 3.93261 19.9368 4.02011 19.9224C4.02448 19.9218 4.02823 19.9212 4.03261 19.9206C4.03386 19.9206 4.03573 19.9206 4.03698 19.9199C4.31636 19.8731 4.59261 19.7993 4.85761 19.7024C5.71386 19.3887 6.45198 18.8268 6.99448 18.0756C7.16198 17.8412 7.46511 17.7287 7.73136 17.8031C8.23198 17.9418 8.75261 17.9968 9.27948 17.9662C9.88386 17.9306 10.4682 17.7818 11.007 17.5299C10.9914 17.6356 10.9826 17.7424 10.9826 17.8512C10.9826 19.0531 11.9607 20.0312 13.1626 20.0312C14.3645 20.0312 15.2782 19.1162 15.3395 17.9681C15.8451 17.9912 16.3451 17.9362 16.827 17.8024C17.0932 17.7287 17.3964 17.8406 17.5651 18.0768C18.1051 18.8262 18.8439 19.3881 19.6995 19.7018C19.9626 19.7993 20.2389 19.8724 20.5201 19.9199C20.5214 19.9199 20.5232 19.9199 20.5245 19.9206C20.5289 19.9212 20.5326 19.9218 20.537 19.9231C20.6251 19.9374 20.7132 19.9443 20.8007 19.9443C20.8464 19.9443 20.8914 19.9418 20.9364 19.9381C20.9964 20.4068 21.0245 20.8793 21.0189 21.3493V21.3593C21.0276 22.1999 20.9326 23.0424 20.7364 23.8637C20.2632 25.8481 19.2045 27.6506 17.7557 28.9381C16.2151 30.3068 14.3214 31.0424 12.2782 31.0643C10.6614 31.0468 9.16136 30.5943 7.82073 29.7187C7.60386 29.5774 7.31323 29.6381 7.17198 29.8549C7.03011 30.0718 7.09136 30.3624 7.30823 30.5037C8.78136 31.4656 10.4982 31.9837 12.2732 32.0018H12.2826C14.5576 31.9787 16.6651 31.1618 18.3782 29.6387C19.8782 28.3056 20.9964 26.4749 21.5526 24.4518C23.2176 24.4012 24.5564 23.0318 24.5564 21.3543C24.5564 20.0024 23.6595 18.8099 22.4051 18.4037C22.4076 18.3231 22.4051 18.2418 22.3945 18.1599C22.3501 17.7556 22.2764 17.3499 22.1764 16.9487C23.2826 16.7262 24.2645 16.0549 24.8739 15.0831C24.9845 14.9062 25.1701 14.7768 25.3826 14.7287C28.2689 14.0743 30.3057 11.4481 30.2251 8.48307L30.2264 8.48119ZM18.7445 1.67369C19.2532 1.19869 19.9189 0.937441 20.6189 0.937441C21.5714 0.937441 22.4857 1.42182 22.9489 2.17119C23.4457 2.97494 23.4864 4.08432 23.0501 4.93244C22.782 5.45369 22.3407 5.88369 21.8082 6.14244C21.4414 6.32057 21.2045 6.70807 21.2045 7.12994V8.06119C21.2045 8.21932 21.1432 8.36807 21.0314 8.47932C20.9195 8.59119 20.7707 8.65244 20.6132 8.65244C20.287 8.65244 20.0214 8.38682 20.0214 8.06057V7.12932C20.0214 6.25682 20.5201 5.45119 21.2914 5.07682C21.7214 4.86807 22.0357 4.44869 22.1326 3.95432C22.2295 3.45932 22.1007 2.97119 21.7801 2.61494C21.5089 2.31369 21.127 2.13744 20.7057 2.11932C20.682 2.11807 20.6589 2.11807 20.6357 2.11807C20.2314 2.11807 19.8395 2.26869 19.552 2.53744C19.4395 2.64244 19.3439 2.76182 19.2676 2.89307C19.1532 3.08932 18.9607 3.20682 18.7532 3.20682H18.7245C18.517 3.20682 18.3301 3.09994 18.2245 2.92119C18.1782 2.84307 18.0882 2.64494 18.1876 2.41244C18.1907 2.40682 18.1932 2.40057 18.1957 2.39494C18.2014 2.38244 18.2076 2.36994 18.2145 2.35744C18.3551 2.10119 18.5339 1.87119 18.7457 1.67307L18.7445 1.67369ZM0.937607 21.3524C0.937607 20.4012 1.57448 19.5624 2.46136 19.2862C2.53761 19.3899 2.62698 19.4831 2.72636 19.5656C2.63761 20.1549 2.59511 20.7549 2.60073 21.3524C2.59323 22.0687 2.65636 22.7856 2.78573 23.4918C1.74198 23.3393 0.937607 22.4381 0.937607 21.3524ZM13.1626 19.0918C12.4776 19.0918 11.9201 18.5343 11.9201 17.8493C11.9201 17.4249 12.1332 17.0343 12.4914 16.8043C12.6914 16.6749 12.9232 16.6068 13.1626 16.6068C13.737 16.6068 14.2326 16.9956 14.3695 17.5537C14.3932 17.6487 14.4051 17.7481 14.4051 17.8493C14.4051 18.5343 13.8476 19.0918 13.1626 19.0918ZM20.6982 18.9974C20.6876 18.9956 20.6776 18.9937 20.6689 18.9924C20.4476 18.9549 20.2314 18.8968 20.0239 18.8206C19.3432 18.5712 18.7564 18.1237 18.327 17.5287C17.9282 16.9712 17.2245 16.7181 16.577 16.8981C16.1757 17.0093 15.7576 17.0531 15.3357 17.0287C15.2832 17.0256 15.2301 17.0199 15.1776 17.0149C14.8451 16.2093 14.0589 15.6699 13.1639 15.6699C12.7864 15.6699 12.4182 15.7681 12.0932 15.9524C11.8014 15.9849 11.5276 16.0931 11.2951 16.2687C10.6957 16.7218 9.98011 16.9843 9.22636 17.0293C8.80323 17.0537 8.38511 17.0099 7.98386 16.8987C7.33511 16.7187 6.63198 16.9718 6.23448 17.5281C5.80323 18.1249 5.21636 18.5724 4.53573 18.8218C4.32636 18.8987 4.10823 18.9568 3.88698 18.9943C3.87948 18.9956 3.87136 18.9968 3.86386 18.9981C3.72261 19.0199 3.58198 18.9968 3.45511 18.9312C3.45448 18.9312 3.45323 18.9306 3.45261 18.9299C3.30823 18.8562 3.19261 18.7287 3.13386 18.5793C3.09511 18.4818 3.08198 18.3774 3.09511 18.2699C3.09511 18.2681 3.09511 18.2656 3.09573 18.2637C3.19698 17.3431 3.45511 16.4412 3.86386 15.5837C4.03198 15.2306 4.05573 14.8331 3.93073 14.4637C3.73886 13.8949 3.60886 13.3106 3.54511 12.7281C3.54511 12.7262 3.54511 12.7237 3.54448 12.7218C3.51948 12.5199 3.59136 12.3212 3.74073 12.1774C3.89698 12.0274 4.10823 11.9612 4.32073 11.9962C4.32136 11.9962 4.32261 11.9962 4.32323 11.9962C4.32573 11.9962 4.32761 11.9968 4.33011 11.9974L4.34386 11.9999C4.71198 12.0624 5.07698 11.9487 5.34511 11.6887C5.61386 11.4281 5.73886 11.0656 5.68823 10.6949C5.67636 10.6068 5.66511 10.5181 5.65511 10.4287C5.65511 10.4262 5.65511 10.4237 5.65448 10.4206C5.62011 10.1431 5.71761 9.87119 5.92323 9.67369C6.13636 9.46869 6.42511 9.37807 6.71511 9.42619C6.72011 9.42682 6.72448 9.42744 6.72948 9.42807C6.73198 9.42807 6.73511 9.42869 6.73761 9.42932C7.50448 9.55932 8.22761 9.88744 8.82886 10.3774C9.19011 10.6718 9.66136 10.7818 10.122 10.6799C10.5101 10.5937 10.9114 10.5299 11.3195 10.4893C11.3601 10.7743 11.4251 11.0549 11.5139 11.3274C12.1832 13.4049 14.0939 14.8324 16.2676 14.8799C16.547 14.8862 16.827 14.8693 17.102 14.8306C17.4264 14.7843 17.7389 14.9212 17.917 15.1881C18.4645 16.0056 19.2839 16.6031 20.2245 16.8706C20.5507 16.9643 20.8889 17.0162 21.232 17.0268C21.3426 17.4362 21.4214 17.8512 21.4664 18.2637C21.4664 18.2662 21.4664 18.2681 21.467 18.2706C21.4801 18.3781 21.467 18.4824 21.4276 18.5818C21.3701 18.7281 21.2545 18.8549 21.1076 18.9306C21.107 18.9306 21.1064 18.9312 21.1051 18.9318C20.9807 18.9962 20.8414 19.0193 20.6995 18.9987L20.6982 18.9974ZM23.6201 21.3524C23.6201 22.4381 22.8157 23.3393 21.772 23.4918C21.9014 22.7856 21.9645 22.0687 21.957 21.3524C21.9632 20.7568 21.9207 20.1574 21.8314 19.5656C21.9307 19.4831 22.0201 19.3893 22.0964 19.2862C22.9832 19.5624 23.6195 20.4012 23.6195 21.3524H23.6201Z" fill="#212121"/>
<path d="M20.6238 10.4155C19.745 10.4155 19.03 11.1305 19.03 12.0093C19.03 12.888 19.745 13.603 20.6238 13.603C21.5025 13.603 22.2175 12.888 22.2175 12.0093C22.2175 11.1305 21.5025 10.4155 20.6238 10.4155ZM20.6238 12.6655C20.2619 12.6655 19.9675 12.3712 19.9675 12.0093C19.9675 11.6474 20.2619 11.353 20.6238 11.353C20.9857 11.353 21.28 11.6474 21.28 12.0093C21.28 12.3712 20.9857 12.6655 20.6238 12.6655Z" fill="#212121"/>
<path d="M16.7376 21.8555C16.4788 21.8555 16.2688 22.0648 16.2688 22.3236V23.0661C16.2682 23.3248 16.4776 23.5348 16.7369 23.5355C16.9957 23.5355 17.2057 23.3261 17.2057 23.0673V22.3248C17.2063 22.0661 16.9969 21.8561 16.7376 21.8555Z" fill="#212121"/>
<path d="M9.49812 21.6324C9.42312 21.3849 9.16187 21.2449 8.91374 21.3193C8.51624 21.4393 8.02562 21.4949 7.88312 21.4386C7.71062 21.2636 7.42937 21.2511 7.24187 21.4149C7.04687 21.5849 7.02624 21.8811 7.19624 22.0761C7.40874 22.3199 7.75187 22.398 8.10374 22.398C8.18749 22.398 8.27187 22.3936 8.35562 22.3855V23.0586C8.35499 23.3174 8.56437 23.5274 8.82374 23.528C9.08249 23.528 9.29249 23.3186 9.29249 23.0599V22.3174C9.29249 22.2699 9.28562 22.2243 9.27249 22.1811C9.46437 22.0774 9.56374 21.8499 9.49812 21.633V21.6324Z" fill="#212121"/>
<path d="M17.4993 20.9276C16.8837 20.0914 15.8268 20.492 15.3543 20.8207C15.1424 20.9682 15.0906 21.2582 15.2368 21.4707C15.3831 21.6832 15.6749 21.737 15.8881 21.5914C15.8943 21.587 16.5174 21.1745 16.7443 21.4832C16.8362 21.6082 16.9781 21.6739 17.1218 21.6739C17.2181 21.6739 17.3156 21.6439 17.3993 21.5826C17.6074 21.4289 17.6524 21.1357 17.4987 20.927L17.4993 20.9276Z" fill="#212121"/>
<path d="M13.3531 24.2031H13.3687C13.6275 24.2031 13.8375 23.9931 13.8375 23.7343C13.8375 23.4756 13.6275 23.2656 13.3687 23.2656H13.3543C12.9668 23.2656 12.075 23.2643 11.4881 23.0243C11.2487 22.9262 10.975 23.0412 10.8768 23.2806C10.7787 23.5199 10.8937 23.7937 11.1331 23.8918C11.8893 24.2012 12.8737 24.2031 13.3531 24.2031Z" fill="#212121"/>
</g>
<defs>
<clipPath id="clip0_56_1824">
<rect width="30.2281" height="32" fill="white"/>
</clipPath>
</defs>
</svg>
