<?xml version="1.0" encoding="utf-8"?><svg xmlns="http://www.w3.org/2000/svg" xmlns:xlink="http://www.w3.org/1999/xlink"><symbol fill="none" viewBox="0 0 28 28" id="dzen" xmlns="http://www.w3.org/2000/svg"><g clip-path="url(#aa)"><path fill-rule="evenodd" clip-rule="evenodd" d="M14.055 28h-.112c-5.558 0-8.81-.56-11.075-2.78C.538 22.844 0 19.616 0 14.078v-.157C0 8.384.538 5.133 2.87 2.78 5.155.56 8.385 0 13.947 0h.111c5.537 0 8.789.56 11.074 2.78 2.331 2.378 2.87 5.604 2.87 11.142v.157c0 5.538-.539 8.788-2.87 11.143-2.287 2.22-5.514 2.78-11.075 2.78L14.055 28Zm10.418-14.412a.203.203 0 0 1 .194.2h-.002v.446a.2.2 0 0 1-.193.2c-3.827.145-6.155.632-7.787 2.263-1.63 1.63-2.117 3.953-2.263 7.775a.203.203 0 0 1-.2.193h-.449a.2.2 0 0 1-.2-.193c-.146-3.82-.633-6.145-2.263-7.775-1.63-1.63-3.958-2.118-7.787-2.263a.203.203 0 0 1-.193-.2v-.447a.2.2 0 0 1 .193-.2c3.827-.144 6.155-.631 7.787-2.263 1.633-1.633 2.12-3.964 2.265-7.8a.203.203 0 0 1 .2-.193h.447a.2.2 0 0 1 .2.194c.145 3.835.631 6.166 2.265 7.8 1.63 1.63 3.958 2.118 7.785 2.263h.001Z" fill="#fff"/></g><defs><clipPath id="aa"><path fill="#fff" d="M0 0h28v28H0z"/></clipPath></defs></symbol><symbol fill="none" viewBox="0 0 28 28" id="pdf" xmlns="http://www.w3.org/2000/svg"><rect width="28" height="28" rx="4" fill="#fff"/><path d="M18.096 17.275V10h4.814v1.27h-3.28v1.997h2.964v1.245H19.63v2.763h-1.533Zm-4.366 0h-1.894v-1.318h1.826c.46 0 .843-.08 1.152-.24a1.55 1.55 0 0 0 .704-.756c.16-.345.239-.788.239-1.328 0-.537-.08-.977-.24-1.318a1.525 1.525 0 0 0-.702-.752c-.31-.163-.692-.245-1.148-.245h-1.86V10h1.948c.732 0 1.362.146 1.89.44.527.29.932.706 1.215 1.25.284.54.425 1.188.425 1.943 0 .758-.143 1.41-.43 1.953-.283.544-.69.962-1.22 1.255-.53.29-1.166.434-1.905.434ZM12.685 10v7.275h-1.533V10h1.534ZM5 17.275V10h2.866c.55 0 1.02.106 1.406.317.391.209.689.498.894.87.208.37.313.799.313 1.284 0 .482-.105.906-.313 1.274a2.178 2.178 0 0 1-.908.864c-.394.206-.871.308-1.43.308H6v-1.23h1.577c.296 0 .54-.053.733-.157.195-.104.34-.247.434-.43.098-.182.147-.392.147-.63 0-.243-.05-.455-.147-.634a.98.98 0 0 0-.434-.425c-.196-.1-.442-.151-.738-.151h-1.04v6.015H5Z" fill="#880721"/></symbol><symbol fill="none" viewBox="0 0 28 28" id="telegram" xmlns="http://www.w3.org/2000/svg"><g clip-path="url(#ca)"><path fill-rule="evenodd" clip-rule="evenodd" d="M14 0C6.268 0 0 6.268 0 14s6.268 14 14 14 14-6.268 14-14S21.732 0 14 0Zm6.481 9.512c-.21 2.215-1.119 7.589-1.585 10.06-.198 1.05-.583 1.399-.956 1.434-.816.07-1.434-.536-2.215-1.05-1.235-.804-1.923-1.305-3.124-2.098-1.387-.909-.49-1.41.303-2.226.21-.21 3.789-3.474 3.859-3.765.011-.035.011-.175-.07-.245-.082-.07-.198-.047-.292-.023-.128.023-2.086 1.329-5.898 3.905-.56.384-1.06.57-1.515.56-.502-.012-1.458-.28-2.18-.514-.875-.28-1.574-.43-1.516-.92.035-.257.385-.513 1.038-.782 4.08-1.771 6.796-2.949 8.16-3.52 3.881-1.62 4.697-1.9 5.222-1.912.116 0 .373.024.548.164.14.116.175.268.198.384.023.117.047.362.023.548Z" fill="#fff"/></g><defs><clipPath id="ca"><path fill="#fff" d="M0 0h28v28H0z"/></clipPath></defs></symbol><symbol fill="none" viewBox="0 0 18 20" id="user" xmlns="http://www.w3.org/2000/svg"><path d="M13.5 5.5c0 2.807-2.059 5-4.5 5s-4.5-2.193-4.5-5S6.559.5 9 .5s4.5 2.193 4.5 5Z" stroke="#212121"/><mask id="da" fill="#fff"><path d="M0 20a9 9 0 1 1 18 0"/></mask><path d="M1 20a8 8 0 0 1 8-8v-2C3.477 10-1 14.477-1 20h2Zm8-8a8 8 0 0 1 8 8h2c0-5.523-4.477-10-10-10v2Z" fill="#212121" mask="url(#da)"/></symbol><symbol fill="none" viewBox="0 0 28 28" id="vk" xmlns="http://www.w3.org/2000/svg"><g clip-path="url(#ea)"><path d="M26.032 1.968C24.063 0 20.896 0 14.56 0h-1.12C7.104 0 3.937 0 1.968 1.968 0 3.937 0 7.104 0 13.44v1.12c0 6.336 0 9.503 1.968 11.472C3.937 28 7.104 28 13.44 28h1.12c6.336 0 9.503 0 11.472-1.968C28 24.063 28 20.896 28 14.56v-1.12c0-6.336 0-9.503-1.968-11.472ZM20.09 20.171c-.711-2.217-2.484-3.931-4.83-4.166v4.166h-.361c-6.381 0-10.021-4.373-10.173-11.653h3.198c.106 5.342 2.461 7.607 4.329 8.072V8.518h3.01v4.608c1.842-.198 3.78-2.298 4.432-4.608h3.01c-.501 2.847-2.601 4.947-4.093 5.81 1.492.7 3.886 2.53 4.796 5.846h-3.312l-.006-.003Z" fill="#fff"/></g><defs><clipPath id="ea"><path fill="#fff" d="M0 0h28v28H0z"/></clipPath></defs></symbol></svg>