<?xml version="1.0" encoding="utf-8"?><svg xmlns="http://www.w3.org/2000/svg" xmlns:xlink="http://www.w3.org/1999/xlink"><symbol fill="none" viewBox="0 0 16 16" id="telegram" xmlns="http://www.w3.org/2000/svg"><path d="m14.629 3.698-2.012 9.618c-.152.679-.548.848-1.11.528l-3.066-2.29-1.48 1.442c-.163.166-.3.305-.616.305l.22-3.165 5.683-5.204c.247-.223-.054-.347-.384-.123L4.839 9.29l-3.024-.959c-.658-.208-.67-.667.137-.986L13.78 2.727c.548-.208 1.027.124.849.971Z" fill="#000"/></symbol><symbol fill="none" viewBox="0 0 18 20" id="user" xmlns="http://www.w3.org/2000/svg"><path d="M13.5 5.5c0 2.807-2.059 5-4.5 5s-4.5-2.193-4.5-5S6.559.5 9 .5s4.5 2.193 4.5 5Z" stroke="#212121"/><mask id="ba" fill="#fff"><path d="M0 20a9 9 0 1 1 18 0"/></mask><path d="M1 20a8 8 0 0 1 8-8v-2C3.477 10-1 14.477-1 20h2Zm8-8a8 8 0 0 1 8 8h2c0-5.523-4.477-10-10-10v2Z" fill="#212121" mask="url(#ba)"/></symbol></svg>