<svg width="28" height="28" viewBox="0 0 28 28" fill="none" xmlns="http://www.w3.org/2000/svg">
<g clip-path="url(#clip0_56_1861)">
<path fill-rule="evenodd" clip-rule="evenodd" d="M14.055 28H13.9433C8.385 28 5.13333 27.44 2.86833 25.2202C0.538333 22.8436 0 19.6155 0 14.0775V13.9208C0 8.3845 0.538333 5.13303 2.87 2.77983C5.155 0.559967 8.385 0 13.9467 0H14.0583C19.595 0 22.8467 0.559967 25.1317 2.77983C27.4633 5.15803 28.0017 8.3845 28.0017 13.9225V14.0792C28.0017 19.6172 27.4633 22.867 25.1317 25.2218C22.845 27.4417 19.6183 28.0017 14.0567 28.0017L14.055 28ZM24.4733 13.5875C24.58 13.5925 24.6667 13.6809 24.6667 13.7875H24.665V14.2342C24.665 14.3425 24.5783 14.4308 24.4717 14.4341C20.645 14.5791 18.3167 15.0658 16.685 16.6973C15.055 18.3272 14.5683 20.6504 14.4217 24.4719C14.4167 24.5785 14.3283 24.6652 14.2217 24.6652H13.7733C13.665 24.6652 13.5767 24.5785 13.5733 24.4719C13.4267 20.6521 12.94 18.3272 11.31 16.6973C9.68 15.0674 7.35167 14.5791 3.52333 14.4341C3.41667 14.4291 3.33 14.3408 3.33 14.2342V13.7875C3.33 13.6792 3.41667 13.5909 3.52333 13.5875C7.35 13.4425 9.67833 12.9559 11.31 11.3243C12.9433 9.69109 13.43 7.35956 13.575 3.52479C13.58 3.41813 13.6683 3.33147 13.775 3.33147H14.2217C14.33 3.33147 14.4183 3.41813 14.4217 3.52479C14.5667 7.35956 15.0533 9.69109 16.6867 11.3243C18.3167 12.9542 20.645 13.4425 24.4717 13.5875H24.4733Z" fill="white"/>
</g>
<defs>
<clipPath id="clip0_56_1861">
<rect width="28" height="28" fill="white"/>
</clipPath>
</defs>
</svg>
