<svg width="28" height="28" viewBox="0 0 28 28" fill="none" xmlns="http://www.w3.org/2000/svg">
<rect width="28" height="28" rx="4" fill="white"/>
<path d="M18.0957 17.2754V10H22.9102V11.2695H19.6289V13.2666H22.5928V14.5117H19.6289V17.2754H18.0957Z" fill="#880721"/>
<path d="M13.7305 17.2754H11.8359V15.957H13.6621C14.1211 15.957 14.5052 15.8773 14.8145 15.7178C15.127 15.555 15.3613 15.3027 15.5176 14.9609C15.6771 14.6159 15.7568 14.1732 15.7568 13.6328C15.7568 13.0957 15.6771 12.6562 15.5176 12.3145C15.3613 11.9727 15.127 11.722 14.8145 11.5625C14.5052 11.3997 14.1227 11.3184 13.667 11.3184H11.8066V10H13.7549C14.4873 10 15.1172 10.1465 15.6445 10.4395C16.1719 10.7292 16.5771 11.1458 16.8604 11.6895C17.1436 12.2298 17.2852 12.8776 17.2852 13.6328C17.2852 14.3913 17.1419 15.0423 16.8555 15.5859C16.5723 16.1296 16.1654 16.5479 15.6348 16.8408C15.1042 17.1305 14.4694 17.2754 13.7305 17.2754ZM12.6855 10V17.2754H11.1523V10H12.6855Z" fill="#880721"/>
<path d="M5 17.2754V10H7.86621C8.41634 10 8.88509 10.1058 9.27246 10.3174C9.66309 10.5257 9.96094 10.8154 10.166 11.1865C10.3743 11.5576 10.4785 11.9857 10.4785 12.4707C10.4785 12.9525 10.3743 13.3773 10.166 13.7451C9.95768 14.113 9.65495 14.401 9.25781 14.6094C8.86393 14.8145 8.38704 14.917 7.82715 14.917H6.00098V13.6865H7.57812C7.87435 13.6865 8.11849 13.6344 8.31055 13.5303C8.50586 13.4261 8.65072 13.2829 8.74512 13.1006C8.84277 12.9183 8.8916 12.7083 8.8916 12.4707C8.8916 12.2266 8.84277 12.015 8.74512 11.8359C8.65072 11.6536 8.50586 11.512 8.31055 11.4111C8.11523 11.3102 7.86947 11.2598 7.57324 11.2598H6.5332V17.2754H5Z" fill="#880721"/>
</svg>
