<svg width="28" height="28" viewBox="0 0 28 28" fill="none" xmlns="http://www.w3.org/2000/svg">
<g clip-path="url(#clip0_56_1863)">
<path fill-rule="evenodd" clip-rule="evenodd" d="M14 0C6.26794 0 0 6.26794 0 14C0 21.7321 6.26794 28 14 28C21.7321 28 28 21.7321 28 14C28 6.26794 21.7321 0 14 0ZM20.4813 9.51207C20.2714 11.7269 19.3622 17.1007 18.8959 19.572C18.6978 20.6211 18.3131 20.9709 17.9401 21.0058C17.1241 21.0758 16.5062 20.4696 15.7252 19.9567C14.4896 19.1524 13.8018 18.6511 12.6012 17.8585C11.214 16.9492 12.1116 16.448 12.9042 15.632C13.1141 15.4221 16.6928 12.1582 16.7627 11.8668C16.7744 11.8318 16.7744 11.6919 16.6928 11.622C16.6112 11.552 16.4946 11.5754 16.4013 11.5987C16.2731 11.622 14.3147 12.9276 10.5029 15.5037C9.94338 15.8884 9.44213 16.0749 8.98751 16.0633C8.48626 16.0516 7.53039 15.7835 6.80766 15.5504C5.93339 15.2706 5.23397 15.1191 5.29226 14.6295C5.32723 14.373 5.67694 14.1166 6.32973 13.8485C10.4097 12.0766 13.1257 10.8993 14.4896 10.3281C18.3714 8.70774 19.1873 8.42798 19.7119 8.41632C19.8285 8.41632 20.0849 8.43963 20.2598 8.57952C20.3997 8.69609 20.4346 8.84763 20.458 8.9642C20.4813 9.08077 20.5046 9.32556 20.4813 9.51207Z" fill="white"/>
</g>
<defs>
<clipPath id="clip0_56_1863">
<rect width="28" height="28" fill="white"/>
</clipPath>
</defs>
</svg>
