<svg width="18" height="20" viewBox="0 0 18 20" fill="none" xmlns="http://www.w3.org/2000/svg">
<path d="M13.5 5.5C13.5 8.30734 11.4415 10.5 9 10.5C6.5585 10.5 4.5 8.30734 4.5 5.5C4.5 2.69266 6.5585 0.5 9 0.5C11.4415 0.5 13.5 2.69266 13.5 5.5Z" stroke="#212121"/>
<mask id="path-2-inside-1_58_1019" fill="white">
<path d="M0 20C0 15.0294 4.02943 11 9 11C13.9706 11 18 15.0294 18 20"/>
</mask>
<path d="M1 20C1 15.5817 4.58171 12 9 12V10C3.47714 10 -1 14.4771 -1 20H1ZM9 12C13.4183 12 17 15.5817 17 20H19C19 14.4771 14.5229 10 9 10V12Z" fill="#212121" mask="url(#path-2-inside-1_58_1019)"/>
</svg>
