<svg width="28" height="28" viewBox="0 0 28 28" fill="none" xmlns="http://www.w3.org/2000/svg">
<g clip-path="url(#clip0_56_1858)">
<path d="M26.0316 1.9684C24.0632 0 20.8964 0 14.56 0H13.44C7.1036 0 3.9368 0 1.9684 1.9684C0 3.9368 0 7.1036 0 13.44V14.56C0 20.8964 0 24.0632 1.9684 26.0316C3.9368 28 7.1036 28 13.44 28H14.56C20.8964 28 24.0632 28 26.0316 26.0316C28 24.0632 28 20.8964 28 14.56V13.44C28 7.1036 28 3.9368 26.0316 1.9684ZM20.09 20.1712C19.3788 17.9536 17.6064 16.24 15.26 16.0048V20.1712H14.8988C8.5176 20.1712 4.8776 15.7976 4.7264 8.5176H7.924C8.0304 13.86 10.3852 16.1252 12.2528 16.59V8.5176H15.2628V13.1264C17.1052 12.9276 19.0428 10.8276 19.6952 8.5176H22.7052C22.204 11.3652 20.104 13.4652 18.6116 14.3276C20.104 15.0276 22.498 16.8588 23.408 20.174H20.0956L20.09 20.1712Z" fill="white"/>
</g>
<defs>
<clipPath id="clip0_56_1858">
<rect width="28" height="28" fill="white"/>
</clipPath>
</defs>
</svg>
