<svg width="17" height="17" viewBox="0 0 17 17" fill="none" xmlns="http://www.w3.org/2000/svg">
<g clip-path="url(#clip0_56_2359)">
<path d="M15.6904 10.6688C15.4564 10.6688 15.2669 10.8592 15.2669 11.0944V14.8725C15.2661 15.5773 14.698 16.1487 13.9968 16.1491H2.11673C1.41554 16.1482 0.847456 15.5773 0.846608 14.8725V3.78364C0.847456 3.07889 1.41554 2.50793 2.11673 2.50708H5.87581C6.10983 2.50708 6.29933 2.31662 6.29933 2.08142C6.29933 1.84622 6.10983 1.65576 5.87581 1.65576H2.11673C0.948354 1.65704 0.00127182 2.60892 0 3.78364V14.8725C0.00127182 16.0473 0.948354 16.9987 2.11673 17H13.9964C15.1652 16.9987 16.1118 16.0468 16.1131 14.8725V11.094C16.1131 10.8588 15.9236 10.6683 15.6896 10.6683L15.6904 10.6688Z" fill="white"/>
<path d="M16.443 1.06021L15.9461 0.560836C15.2021 -0.186945 13.9956 -0.186945 13.2516 0.560836L5.69823 8.15242C5.64651 8.2044 5.60921 8.26874 5.5897 8.3399L4.59641 11.9442C4.55571 12.092 4.59726 12.2501 4.70494 12.3587C4.81305 12.467 4.97033 12.5087 5.11743 12.4678L8.70355 11.4695C8.77392 11.4499 8.83836 11.4124 8.89008 11.3604L16.4434 3.76842C17.1862 3.02021 17.1862 1.80884 16.4434 1.06021H16.443ZM5.61175 11.4469L6.22222 9.23212L7.81497 10.8334L5.61175 11.4469ZM8.61409 10.4333L6.62073 8.42938L12.8026 2.21576L14.7964 4.21964L8.61409 10.4333ZM15.8444 3.16678L15.3954 3.61801L13.4016 1.61412L13.851 1.1629C14.2644 0.747462 14.9346 0.747462 15.348 1.1629L15.8448 1.66227C16.2573 2.07813 16.2573 2.75135 15.8448 3.16678H15.8444Z" fill="white"/>
</g>
<defs>
<clipPath id="clip0_56_2359">
<rect width="17" height="17" fill="white"/>
</clipPath>
</defs>
</svg>
